<?xml version="1.0" encoding="UTF-8" standalone="no"?>
<!-- Generator: Adobe Illustrator 18.1.1, SVG Export Plug-In . SVG Version: 6.00 Build 0)  -->

<svg
   xmlns:dc="http://purl.org/dc/elements/1.1/"
   xmlns:cc="http://creativecommons.org/ns#"
   xmlns:rdf="http://www.w3.org/1999/02/22-rdf-syntax-ns#"
   xmlns:svg="http://www.w3.org/2000/svg"
   xmlns="http://www.w3.org/2000/svg"
   xmlns:sodipodi="http://sodipodi.sourceforge.net/DTD/sodipodi-0.dtd"
   xmlns:inkscape="http://www.inkscape.org/namespaces/inkscape"
   version="1.1"
   id="Layer_1"
   x="0px"
   y="0px"
   width="32px"
   height="32px"
   viewBox="0 0 32 32"
   enable-background="new 0 0 32 32"
   xml:space="preserve"
   sodipodi:docname="social-1_round-google-plus-custom.svg"
   inkscape:version="0.92.0 r"><metadata
     id="metadata13"><rdf:RDF><cc:Work
         rdf:about=""><dc:format>image/svg+xml</dc:format><dc:type
           rdf:resource="http://purl.org/dc/dcmitype/StillImage" /></cc:Work></rdf:RDF></metadata><defs
     id="defs11" /><sodipodi:namedview
     pagecolor="#ffffff"
     bordercolor="#666666"
     borderopacity="1"
     objecttolerance="10"
     gridtolerance="10"
     guidetolerance="10"
     inkscape:pageopacity="0"
     inkscape:pageshadow="2"
     inkscape:window-width="1920"
     inkscape:window-height="1052"
     id="namedview9"
     showgrid="true"
     inkscape:zoom="14.75"
     inkscape:cx="2.9691204"
     inkscape:cy="12.561453"
     inkscape:window-x="0"
     inkscape:window-y="360"
     inkscape:window-maximized="1"
     inkscape:current-layer="Layer_1"><inkscape:grid
       type="xygrid"
       id="grid4490" /></sodipodi:namedview><path
     d="M 16 0 C 7.2 0 0 7.2 0 16 C 0 24.8 7.2 32 16 32 C 24.8 32 32 24.8 32 16 C 32 7.2 24.8 0 16 0 z "
     id="path6"
     style="fill:#444444;fill-opacity:1" /><g
     id="g4509"
     transform="matrix(0.62940913,0,0,0.62940913,-14.863775,5.2239516)"
     style="fill:#fefbfb;fill-opacity:1"><path
       d="M 36.341783,17.06312 C 36.183619,12.898481 39.831544,9.050166 44,9 c 2.124765,-0.181152 4.191616,0.64408 5.799585,1.989927 -0.659408,0.724906 -1.330243,1.442008 -2.047565,2.113122 -1.415191,-0.860079 -3.119618,-1.515583 -4.773851,-0.933377 -2.668484,0.759746 -4.284173,3.910189 -3.296956,6.520787 0.817487,2.726257 4.133701,4.222602 6.732705,3.077144 1.345822,-0.48188 2.232762,-1.723492 2.622192,-3.057915 -1.542446,-0.03065 -3.084892,-0.01145 -4.627311,-0.0538 -0.0038,-0.917766 -0.0077,-1.831906 -0.0038,-2.749665 2.571997,-0.0039 5.147924,-0.01145 7.72374,0.01169 0.15808,2.24801 -0.173548,4.654317 -1.634975,6.458912 -2.001328,2.576035 -5.699335,3.331879 -8.707139,2.321585 -3.192889,-1.049036 -5.514278,-4.264971 -5.444825,-7.635308"
       style="fill:#fefbfb;fill-opacity:1;fill-rule:nonzero;stroke:none;stroke-width:0.02787016"
       id="path4529"
       inkscape:connector-curvature="0" /><path
       d="m 57.141644,13.592727 c 0.763643,0 1.527007,0 2.294551,0 0.0039,0.76726 0.01143,1.53843 0.01532,2.305974 0.767264,0.0079 1.53871,0.01145 2.305976,0.01533 0,0.767544 0,1.530909 0,2.298177 -0.767266,0.004 -1.538712,0.0079 -2.305976,0.01169 -0.0078,0.771162 -0.01143,1.538706 -0.01532,2.309877 -0.767544,-0.004 -1.534811,0 -2.298453,0 -0.0075,-0.771171 -0.0075,-1.538715 -0.01533,-2.305982 -0.767265,-0.0079 -1.538711,-0.01169 -2.305977,-0.01557 0,-0.767267 0,-1.530632 0,-2.298176 0.767266,-0.004 1.53481,-0.0079 2.305977,-0.01533 0.0039,-0.767544 0.01171,-1.538714 0.01923,-2.305974"
       style="fill:#fefbfb;fill-opacity:1;fill-rule:nonzero;stroke:none;stroke-width:0.02787016"
       id="path4531"
       inkscape:connector-curvature="0" /></g></svg>