<?xml version="1.0" encoding="UTF-8"?>
<!-- Generator: Adobe Illustrator 18.1.1, SVG Export Plug-In . SVG Version: 6.00 Build 0)  -->
<svg id="Layer_1" width="32px" height="32px" enable-background="new 0 0 32 32" version="1.1" viewBox="0 0 32 32" xml:space="preserve" xmlns="http://www.w3.org/2000/svg" xmlns:cc="http://creativecommons.org/ns#" xmlns:dc="http://purl.org/dc/elements/1.1/" xmlns:rdf="http://www.w3.org/1999/02/22-rdf-syntax-ns#"><metadata id="metadata15"><rdf:RDF><cc:Work rdf:about=""><dc:format>image/svg+xml</dc:format><dc:type rdf:resource="http://purl.org/dc/dcmitype/StillImage"/><dc:title/></cc:Work></rdf:RDF></metadata><path id="path6" d="m16 0c-8.8 0-16 7.2-16 16s7.2 16 16 16 16-7.2 16-16-7.2-16-16-16z" fill="#444"/><path id="path19" d="m8.3258 18.301c0.98899 3.2968 4.0483 5.6989 7.6691 5.6989 4.421 0 8.0051-3.5818 8.0051-8 0-4.4183-3.5841-8-8.0051-8-4.2424 0-7.7138 3.2981-7.9879 7.4685 0.51804 0.86936 0.72018 1.407 0.31891 2.8326z" fill="#fff" stroke-width=".068691"/><path id="path21-3" d="m15.583 13.996c0 0.01346 0 0.02692 6.76e-4 0.03956l-1.9589 2.8437c-0.31732-0.01441-0.63574 0.0412-0.93766 0.16549-0.1331 0.05425-0.25781 0.12086-0.37483 0.19777l-4.3014-1.7696c3.6e-5 0-0.09953 1.6364 0.31526 2.856l3.0408 1.2539c0.15268 0.68189 0.62075 1.28 1.3113 1.5677 1.1299 0.47176 2.4326-0.06592 2.9026-1.1955 0.12231-0.29528 0.17934-0.60498 0.1711-0.91399l2.8028-2.0017c0.02268 7.94e-4 0.04604 0.0012 0.06871 0.0012 1.6773 0 3.0406-1.3665 3.0406-3.0447 0-1.6783-1.3633-3.0436-3.0406-3.0436-1.6766 0-3.0406 1.3653-3.0406 3.0436zm-0.47 5.7626c-0.36377 0.87279-1.3674 1.2869-2.2398 0.92361-0.40245-0.16756-0.70631-0.47451-0.88159-0.84052l0.98982 0.40996c0.64336 0.26781 1.3815-0.03708 1.6489-0.67983 0.26826-0.64343-0.03607-1.3823-0.67909-1.6501l-1.0232-0.42369c0.39483-0.1497 0.84366-0.15519 1.263 0.01921 0.4228 0.17579 0.75083 0.50678 0.92468 0.92978 0.17384 0.42301 0.17316 0.88996-0.0027 1.3116m3.5106-3.7342c-1.1166 0-2.0257-0.90987-2.0257-2.0284 0-1.1176 0.90908-2.0277 2.0257-2.0277 1.1173 0 2.0264 0.91014 2.0264 2.0277 0 1.1185-0.90908 2.0284-2.0264 2.0284m-1.5179-2.0315c0-0.84141 0.68164-1.5238 1.5213-1.5238 0.84036 0 1.522 0.68244 1.522 1.5238 0 0.84148-0.68164 1.5233-1.522 1.5233-0.83968 0-1.5213-0.68182-1.5213-1.5233z" fill="#444" stroke-width=".068691"/></svg>
