<?xml version="1.0" encoding="UTF-8" standalone="no"?>
<!-- Generator: Adobe Illustrator 18.1.1, SVG Export Plug-In . SVG Version: 6.00 Build 0)  -->

<svg
   xmlns:dc="http://purl.org/dc/elements/1.1/"
   xmlns:cc="http://creativecommons.org/ns#"
   xmlns:rdf="http://www.w3.org/1999/02/22-rdf-syntax-ns#"
   xmlns:svg="http://www.w3.org/2000/svg"
   xmlns="http://www.w3.org/2000/svg"
   xmlns:sodipodi="http://sodipodi.sourceforge.net/DTD/sodipodi-0.dtd"
   xmlns:inkscape="http://www.inkscape.org/namespaces/inkscape"
   version="1.1"
   id="Layer_1"
   x="0px"
   y="0px"
   width="32px"
   height="32px"
   viewBox="0 0 32 32"
   enable-background="new 0 0 32 32"
   xml:space="preserve"
   sodipodi:docname="social-1_round-steam.svg"
   inkscape:version="0.92.0 r"><metadata
     id="metadata15"><rdf:RDF><cc:Work
         rdf:about=""><dc:format>image/svg+xml</dc:format><dc:type
           rdf:resource="http://purl.org/dc/dcmitype/StillImage" /><dc:title></dc:title></cc:Work></rdf:RDF></metadata><defs
     id="defs13"><linearGradient
       gradientUnits="userSpaceOnUse"
       y1="0"
       gradientTransform="matrix(0.06867648,0,0,0.0687064,7.9897114,7.999999)"
       id="a"
       x2="116.68872"
       x1="116.68872"
       y2="232.87497"><stop
         stop-color="#111D2E"
         offset="0"
         id="stop2" /><stop
         stop-color="#051839"
         offset=".21248"
         id="stop4" /><stop
         stop-color="#0A1B48"
         offset=".40695"
         id="stop6" /><stop
         stop-color="#132E62"
         offset=".58110"
         id="stop8" /><stop
         stop-color="#144B7E"
         offset=".73760"
         id="stop10" /><stop
         stop-color="#136497"
         offset=".87279"
         id="stop12" /><stop
         stop-color="#1387B8"
         offset="1"
         id="stop14" /></linearGradient></defs><sodipodi:namedview
     pagecolor="#ffffff"
     bordercolor="#666666"
     borderopacity="1"
     objecttolerance="10"
     gridtolerance="10"
     guidetolerance="10"
     inkscape:pageopacity="0"
     inkscape:pageshadow="2"
     inkscape:window-width="2560"
     inkscape:window-height="1379"
     id="namedview11"
     showgrid="false"
     inkscape:zoom="3.6875"
     inkscape:cx="-46.584718"
     inkscape:cy="-56.072935"
     inkscape:window-x="1920"
     inkscape:window-y="33"
     inkscape:window-maximized="1"
     inkscape:current-layer="Layer_1"><inkscape:grid
       type="xygrid"
       id="grid4498" /></sodipodi:namedview><path
     d="M 16 0 C 7.2 0 0 7.2 0 16 C 0 24.8 7.2 32 16 32 C 24.8 32 32 24.8 32 16 C 32 7.2 24.8 0 16 0 z "
     id="path6"
     style="fill:#444444;fill-opacity:1" /><path
     inkscape:connector-curvature="0"
     style="fill:#ffffff;stroke-width:0.06869145;fill-opacity:1"
     d="M 8.3257984,18.301116 C 9.3147884,21.597941 12.374111,24 15.994894,24 20.415911,24 23.999999,20.418197 23.999999,16.000001 23.999999,11.581733 20.415911,8 15.994894,8 c -4.242433,0 -7.7137596,3.298128 -7.9879276,7.468497 0.518037,0.869357 0.720185,1.407038 0.318907,2.832619 z"
     id="path19" /><path
     inkscape:connector-curvature="0"
     style="fill:#444444;stroke-width:0.06869145;fill-opacity:1"
     d="m 15.582538,13.99636 c 0,0.01346 0,0.02692 6.76e-4,0.03956 l -1.958882,2.843742 c -0.317318,-0.01441 -0.635736,0.0412 -0.937662,0.165494 -0.133096,0.05425 -0.25781,0.120856 -0.374831,0.197768 L 8.0104504,15.473311 c 3.6e-5,0 -0.09953,1.636396 0.31526,2.855963 l 3.0408406,1.25391 c 0.152679,0.681886 0.620753,1.279997 1.311325,1.567721 1.129852,0.471761 2.43259,-0.06592 2.902589,-1.195535 0.12231,-0.295278 0.179342,-0.604979 0.171096,-0.913992 l 2.80283,-2.001716 c 0.02268,7.94e-4 0.04604,0.0012 0.06871,0.0012 1.677293,0 3.040566,-1.366524 3.040566,-3.04467 0,-1.678283 -1.363273,-3.04357 -3.040566,-3.04357 -1.676606,0 -3.040566,1.365287 -3.040566,3.04357 z m -0.469999,5.76261 c -0.363769,0.872791 -1.367397,1.286868 -2.23978,0.923606 -0.402453,-0.167555 -0.706306,-0.474508 -0.881594,-0.840517 l 0.989816,0.409957 c 0.643363,0.267812 1.381483,-0.03708 1.648915,-0.679826 0.268257,-0.643433 -0.03607,-1.38232 -0.679094,-1.650128 l -1.023211,-0.423693 c 0.394827,-0.149699 0.843664,-0.155194 1.263019,0.01921 0.422795,0.175792 0.750833,0.506778 0.924677,0.929784 0.173845,0.423006 0.173158,0.889956 -0.0027,1.311588 m 3.510566,-3.734249 c -1.116593,0 -2.02567,-0.909873 -2.02567,-2.028361 0,-1.117597 0.909077,-2.027742 2.02567,-2.027742 1.117278,0 2.026356,0.910145 2.026356,2.027742 0,1.118488 -0.909078,2.028361 -2.026356,2.028361 m -1.517878,-2.031453 c 0,-0.841408 0.681636,-1.523845 1.521313,-1.523845 0.840365,0 1.522001,0.682437 1.522001,1.523845 0,0.841476 -0.681636,1.523295 -1.522001,1.523295 -0.839677,0 -1.521313,-0.681819 -1.521313,-1.523295 z"
     id="path21-3" /></svg>