<?xml version="1.0" encoding="UTF-8" standalone="no"?>
<!-- Generator: Adobe Illustrator 18.1.1, SVG Export Plug-In . SVG Version: 6.00 Build 0)  -->

<svg
   xmlns:sketch="http://www.bohemiancoding.com/sketch/ns"
   xmlns:dc="http://purl.org/dc/elements/1.1/"
   xmlns:cc="http://creativecommons.org/ns#"
   xmlns:rdf="http://www.w3.org/1999/02/22-rdf-syntax-ns#"
   xmlns:svg="http://www.w3.org/2000/svg"
   xmlns="http://www.w3.org/2000/svg"
   xmlns:sodipodi="http://sodipodi.sourceforge.net/DTD/sodipodi-0.dtd"
   xmlns:inkscape="http://www.inkscape.org/namespaces/inkscape"
   id="Layer_1"
   width="32px"
   height="32px"
   enable-background="new 0 0 32 32"
   version="1.1"
   viewBox="0 0 32 32"
   xml:space="preserve"
   sodipodi:docname="test.svg"
   inkscape:version="0.92+devel (1c31310676, 2017-09-09, custom)"><defs
     id="defs11" /><sodipodi:namedview
     pagecolor="#ffffff"
     bordercolor="#666666"
     inkscape:document-rotation="0"
     borderopacity="1"
     objecttolerance="10"
     gridtolerance="10"
     guidetolerance="10"
     inkscape:pageopacity="0"
     inkscape:pageshadow="2"
     inkscape:window-width="2560"
     inkscape:window-height="1379"
     id="namedview9"
     showgrid="true"
     inkscape:zoom="22.627417"
     inkscape:cx="7.0877386"
     inkscape:cy="7.9207541"
     inkscape:window-x="1920"
     inkscape:window-y="33"
     inkscape:window-maximized="1"
     inkscape:current-layer="Layer_1"><inkscape:grid
       type="xygrid"
       id="grid23" /></sodipodi:namedview><metadata
     id="metadata15"><rdf:RDF><cc:Work
         rdf:about=""><dc:format>image/svg+xml</dc:format><dc:type
           rdf:resource="http://purl.org/dc/dcmitype/StillImage" /><dc:title></dc:title></cc:Work></rdf:RDF></metadata><path
     id="path6"
     d="m16 0c-8.8 0-16 7.2-16 16s7.2 16 16 16 16-7.2 16-16-7.2-16-16-16z"
     fill="#444" /><circle
     id="path11"
     cx="-13"
     cy="-3"
     r="16"
     fill="none" /><g
     style="fill-rule:evenodd;stroke:none;stroke-width:1;fill:#fcfcfc;fill-opacity:1"
     fill="#929292"
     sketch:type="MSArtboardGroup"
     id="icon-6-mail-envelope-closed"
     transform="matrix(0.64,0,0,0.625,5.44,6)"><path
       sketch:type="MSShapeGroup"
       id="mail-envelope-closed"
       d="M 25.923077,21.076923 20,16 25.923077,10.923077 v 0 L 25.115385,10.115385 16.5,17.5 7.8846154,10.115385 7.0769231,10.923077 v 0 L 13,16 7.0769231,21.076923 v 0 L 7.8846154,21.884615 13.875,16.75 16.5,19 l 2.625,-2.25 5.990385,5.134615 z M 6.0035949,8 C 4.89704,8 4,8.8945138 4,9.9940603 V 22.00594 C 4,23.107229 4.8897632,24 6.0035949,24 H 26.996405 C 28.10296,24 29,23.105486 29,22.00594 V 9.9940603 C 29,8.8927712 28.110237,8 26.996405,8 Z"
       inkscape:connector-curvature="0"
       style="fill:#fcfcfc;fill-opacity:1" /></g></svg>