<?xml version="1.0" encoding="UTF-8" standalone="no"?>
<!-- Generator: Adobe Illustrator 18.1.1, SVG Export Plug-In . SVG Version: 6.00 Build 0)  -->

<svg
   xmlns:dc="http://purl.org/dc/elements/1.1/"
   xmlns:cc="http://creativecommons.org/ns#"
   xmlns:rdf="http://www.w3.org/1999/02/22-rdf-syntax-ns#"
   xmlns:svg="http://www.w3.org/2000/svg"
   xmlns="http://www.w3.org/2000/svg"
   xmlns:sodipodi="http://sodipodi.sourceforge.net/DTD/sodipodi-0.dtd"
   xmlns:inkscape="http://www.inkscape.org/namespaces/inkscape"
   version="1.1"
   id="Layer_1"
   x="0px"
   y="0px"
   width="32px"
   height="32px"
   viewBox="0 0 32 32"
   enable-background="new 0 0 32 32"
   xml:space="preserve"
   sodipodi:docname="social-1_round-instagram-custom.svg"
   inkscape:version="0.92.0 r"><metadata
     id="metadata15"><rdf:RDF><cc:Work
         rdf:about=""><dc:format>image/svg+xml</dc:format><dc:type
           rdf:resource="http://purl.org/dc/dcmitype/StillImage" /></cc:Work></rdf:RDF></metadata><defs
     id="defs13" /><sodipodi:namedview
     pagecolor="#ffffff"
     bordercolor="#666666"
     borderopacity="1"
     objecttolerance="10"
     gridtolerance="10"
     guidetolerance="10"
     inkscape:pageopacity="0"
     inkscape:pageshadow="2"
     inkscape:window-width="1920"
     inkscape:window-height="1052"
     id="namedview11"
     showgrid="true"
     inkscape:zoom="20.85965"
     inkscape:cx="14.623657"
     inkscape:cy="14.417758"
     inkscape:window-x="0"
     inkscape:window-y="360"
     inkscape:window-maximized="1"
     inkscape:current-layer="Layer_1"><inkscape:grid
       type="xygrid"
       id="grid4492" /></sodipodi:namedview><path
     d="M 16 0 C 7.2 0 0 7.2 0 16 C 0 24.8 7.2 32 16 32 C 24.8 32 32 24.8 32 16 C 32 7.2 24.8 0 16 0 z "
     id="path6"
     style="fill:#444444;fill-opacity:1" /><path
     inkscape:connector-curvature="0"
     id="path4497"
     style="fill:#ffffff;fill-opacity:1;fill-rule:nonzero;stroke:none;stroke-width:0.00317561"
     d="m 16,9.441439 c 2.136069,0 2.389101,0.0081 3.232673,0.04665 0.779991,0.03557 1.203587,0.165894 1.485487,0.275453 0.373414,0.145124 0.639913,0.318482 0.919843,0.598411 0.279961,0.27996 0.453318,0.546457 0.598443,0.919877 0.109558,0.281899 0.239883,0.705493 0.275482,1.485485 0.03842,0.843569 0.04659,1.096601 0.04659,3.232704 0,2.136072 -0.0081,2.389105 -0.04659,3.232672 -0.03561,0.779992 -0.165924,1.203587 -0.275482,1.485485 -0.145125,0.373424 -0.318482,0.639914 -0.598412,0.91985 -0.279961,0.279947 -0.54646,0.453317 -0.919874,0.59844 -0.2819,0.109556 -0.705496,0.239868 -1.485487,0.27547 -0.843476,0.03848 -1.096442,0.04663 -3.232673,0.04663 -2.136261,0 -2.389233,-0.0081 -3.232704,-0.04663 -0.779989,-0.0356 -1.203588,-0.165914 -1.485485,-0.27547 C 10.908388,22.091343 10.641897,21.917973 10.361963,21.638037 10.082027,21.358099 9.908644,21.0916 9.763521,20.718176 9.653963,20.436278 9.523652,20.012683 9.488064,19.232691 c -0.03849,-0.843567 -0.04664,-1.0966 -0.04664,-3.232672 0,-2.136103 0.0081,-2.389135 0.04664,-3.232704 0.03559,-0.779992 0.165899,-1.203586 0.275457,-1.485485 0.145123,-0.37342 0.318492,-0.639917 0.598429,-0.919847 0.279947,-0.279959 0.546438,-0.453317 0.919861,-0.598441 C 11.563708,9.653983 11.987307,9.523655 12.767296,9.488089 13.610894,9.449609 13.863895,9.441439 16,9.441439 M 16,8 C 13.827312,8 13.554881,8.0092 12.701593,8.04814 11.850053,8.08698 11.268536,8.222226 10.759667,8.419971 10.23361,8.624417 9.78745,8.897964 9.342703,9.342707 8.897957,9.787451 8.62441,10.233625 8.419968,10.759695 c -0.19777,0.50886 -0.333006,1.090376 -0.371858,1.941914 -0.03893,0.853287 -0.04813,1.12572 -0.04813,3.298408 0,2.172655 0.0092,2.445091 0.04813,3.298375 0.03886,0.851537 0.174088,1.433057 0.371858,1.941925 0.204442,0.526058 0.477989,0.972217 0.922735,1.416964 0.444747,0.444746 0.890907,0.718294 1.416964,0.922736 0.508869,0.197769 1.090386,0.333006 1.941926,0.371858 0.853288,0.03893 1.125719,0.04812 3.298407,0.04812 2.172658,0 2.445089,-0.0092 3.298377,-0.04812 0.851534,-0.03886 1.433052,-0.174089 1.941913,-0.371858 0.52607,-0.204442 0.972242,-0.47799 1.416985,-0.922736 0.444743,-0.444747 0.718291,-0.890893 0.922738,-1.416964 0.197745,-0.508868 0.332995,-1.090388 0.371829,-1.941925 0.03897,-0.853284 0.04815,-1.12572 0.04815,-3.298375 0,-2.172688 -0.0092,-2.445121 -0.04815,-3.298408 -0.03885,-0.851538 -0.174084,-1.433054 -0.371829,-1.941914 C 23.375566,10.233625 23.102018,9.787451 22.657275,9.342707 22.212532,8.897965 21.76636,8.624418 21.24029,8.419971 20.731429,8.222227 20.149911,8.086978 19.298377,8.04814 18.445089,8.00921 18.172658,8 16,8 v 0" /><path
     inkscape:connector-curvature="0"
     id="path4499"
     style="fill:#ffffff;fill-opacity:1;fill-rule:nonzero;stroke:none;stroke-width:0.00317561"
     d="m 16,11.891896 c -2.268844,0 -4.108123,1.83928 -4.108123,4.108124 0,2.268844 1.839279,4.10809 4.108123,4.10809 2.268844,0 4.108093,-1.839246 4.108093,-4.10809 0,-2.268844 -1.839249,-4.108124 -4.108093,-4.108124 z m 0,6.774775 c -1.472781,0 -2.666683,-1.1939 -2.666683,-2.666651 0,-1.472784 1.193902,-2.666684 2.666683,-2.666684 1.472751,0 2.666653,1.1939 2.666653,2.666684 0,1.472751 -1.193902,2.666651 -2.666653,2.666651" /><path
     inkscape:connector-curvature="0"
     id="path4501"
     style="fill:#ffffff;fill-opacity:1;fill-rule:nonzero;stroke:none;stroke-width:0.00317561"
     d="m 21.230413,11.729591 c 0,0.530199 -0.429816,0.959986 -0.960017,0.959986 -0.5302,0 -0.959987,-0.429787 -0.959987,-0.959986 0,-0.530198 0.429787,-0.960016 0.959987,-0.960016 0.530201,0 0.960017,0.429818 0.960017,0.960016" /></svg>