<?xml version="1.0" encoding="UTF-8" standalone="no"?>
<!-- Generator: Adobe Illustrator 18.1.1, SVG Export Plug-In . SVG Version: 6.00 Build 0)  -->

<svg
   version="1.1"
   id="Layer_1"
   x="0px"
   y="0px"
   width="32px"
   height="32px"
   viewBox="0 0 32 32"
   enable-background="new 0 0 32 32"
   xml:space="preserve"
   sodipodi:docname="instagram.svg"
   inkscape:version="1.1.1 (3bf5ae0d25, 2021-09-20)"
   xmlns:inkscape="http://www.inkscape.org/namespaces/inkscape"
   xmlns:sodipodi="http://sodipodi.sourceforge.net/DTD/sodipodi-0.dtd"
   xmlns="http://www.w3.org/2000/svg"
   xmlns:svg="http://www.w3.org/2000/svg"
   xmlns:rdf="http://www.w3.org/1999/02/22-rdf-syntax-ns#"
   xmlns:cc="http://creativecommons.org/ns#"
   xmlns:dc="http://purl.org/dc/elements/1.1/"><metadata
     id="metadata15"><rdf:RDF><cc:Work
         rdf:about=""><dc:format>image/svg+xml</dc:format><dc:type
           rdf:resource="http://purl.org/dc/dcmitype/StillImage" /></cc:Work></rdf:RDF></metadata><defs
     id="defs13" /><sodipodi:namedview
     pagecolor="#ffffff"
     bordercolor="#666666"
     borderopacity="1"
     objecttolerance="10"
     gridtolerance="10"
     guidetolerance="10"
     inkscape:pageopacity="0"
     inkscape:pageshadow="2"
     inkscape:window-width="2560"
     inkscape:window-height="1367"
     id="namedview11"
     showgrid="true"
     inkscape:zoom="20.85965"
     inkscape:cx="14.62153"
     inkscape:cy="14.405803"
     inkscape:window-x="0"
     inkscape:window-y="37"
     inkscape:window-maximized="1"
     inkscape:current-layer="Layer_1"
     inkscape:pagecheckerboard="0"><inkscape:grid
       type="xygrid"
       id="grid4492" /></sodipodi:namedview><path
     id="path6"
     style="fill:#444444;fill-opacity:1"
     d="M 16 0 C 7.2 0 0 7.2 0 16 C 0 24.8 7.2 32 16 32 C 24.8 32 32 24.8 32 16 C 32 7.2 24.8 0 16 0 z M 16 8 C 18.172658 8 18.44554 8.0098981 19.298828 8.0488281 C 20.150362 8.0876661 20.731373 8.2221779 21.240234 8.4199219 C 21.766304 8.6243689 22.21346 8.8970549 22.658203 9.3417969 C 23.102946 9.7865409 23.375631 10.233696 23.580078 10.759766 C 23.777823 11.268626 23.912322 11.849634 23.951172 12.701172 C 23.990122 13.554459 24 13.827312 24 16 C 24 18.172655 23.990142 18.445544 23.951172 19.298828 C 23.912338 20.150365 23.777823 20.731366 23.580078 21.240234 C 23.375631 21.766305 23.102946 22.213456 22.658203 22.658203 C 22.21346 23.102949 21.766304 23.375636 21.240234 23.580078 C 20.731373 23.777847 20.150362 23.912312 19.298828 23.951172 C 18.44554 23.990092 18.172658 24 16 24 C 13.827312 24 13.55446 23.990102 12.701172 23.951172 C 11.849632 23.91232 11.268635 23.777847 10.759766 23.580078 C 10.233709 23.375636 9.7865439 23.102949 9.3417969 22.658203 C 8.8970509 22.213456 8.6243639 21.766292 8.4199219 21.240234 C 8.2221519 20.731366 8.0876881 20.150365 8.0488281 19.298828 C 8.0098981 18.445544 8 18.172655 8 16 C 8 13.827312 8.0098981 13.554459 8.0488281 12.701172 C 8.0876801 11.849634 8.2221519 11.268626 8.4199219 10.759766 C 8.6243639 10.233696 8.8970509 9.7865409 9.3417969 9.3417969 C 9.7865439 8.8970539 10.233709 8.6243679 10.759766 8.4199219 C 11.268635 8.2221769 11.849632 8.0876681 12.701172 8.0488281 C 13.55446 8.0098881 13.827312 8 16 8 z M 16 9.4414062 C 13.863895 9.4414062 13.611176 9.4498014 12.767578 9.4882812 C 11.987589 9.5238474 11.563147 9.6541129 11.28125 9.7636719 C 10.907827 9.9087959 10.641275 10.081369 10.361328 10.361328 C 10.081391 10.641258 9.9087949 10.90783 9.7636719 11.28125 C 9.6541139 11.563149 9.5238714 11.987586 9.4882812 12.767578 C 9.4497415 13.611147 9.4414062 13.863897 9.4414062 16 C 9.4414062 18.136072 9.4497915 18.388855 9.4882812 19.232422 C 9.5238695 20.012414 9.6541139 20.436852 9.7636719 20.71875 C 9.9087949 21.092174 10.081392 21.358734 10.361328 21.638672 C 10.641262 21.918608 10.907827 22.091205 11.28125 22.236328 C 11.563147 22.345884 11.987589 22.476119 12.767578 22.511719 C 13.611049 22.550249 13.863739 22.558594 16 22.558594 C 18.136231 22.558594 18.388946 22.550199 19.232422 22.511719 C 20.012413 22.476117 20.43685 22.345884 20.71875 22.236328 C 21.092164 22.091205 21.358711 21.918619 21.638672 21.638672 C 21.918602 21.358736 22.091203 21.092174 22.236328 20.71875 C 22.345886 20.436852 22.476109 20.012414 22.511719 19.232422 C 22.550209 18.388855 22.558594 18.136072 22.558594 16 C 22.558594 13.863897 22.550139 13.611147 22.511719 12.767578 C 22.47612 11.987586 22.345886 11.563149 22.236328 11.28125 C 22.091203 10.90783 21.918633 10.641288 21.638672 10.361328 C 21.358742 10.081399 21.092164 9.9087959 20.71875 9.7636719 C 20.43685 9.6541129 20.012413 9.5238514 19.232422 9.4882812 C 18.38885 9.4497314 18.136069 9.4414062 16 9.4414062 z M 20.269531 10.769531 C 20.799732 10.769531 21.230469 11.200271 21.230469 11.730469 C 21.230469 12.260668 20.799732 12.689453 20.269531 12.689453 C 19.739331 12.689453 19.310547 12.260668 19.310547 11.730469 C 19.310547 11.200271 19.739331 10.769531 20.269531 10.769531 z M 16 11.892578 C 18.268844 11.892578 20.107422 13.731156 20.107422 16 C 20.107422 18.268844 18.268844 20.107422 16 20.107422 C 13.731156 20.107422 11.892578 18.268844 11.892578 16 C 11.892578 13.731156 13.731156 11.892578 16 11.892578 z M 16 13.333984 C 14.527219 13.333984 13.333984 14.527216 13.333984 16 C 13.333984 17.472751 14.527219 18.666016 16 18.666016 C 17.472751 18.666016 18.666016 17.472751 18.666016 16 C 18.666016 14.527216 17.472751 13.333984 16 13.333984 z " /></svg>
