<?xml version="1.0" encoding="UTF-8" standalone="no"?>
<!-- Generator: Adobe Illustrator 18.1.1, SVG Export Plug-In . SVG Version: 6.00 Build 0)  -->

<svg
   id="Layer_1"
   width="32px"
   height="32px"
   enable-background="new 0 0 32 32"
   version="1.1"
   viewBox="0 0 32 32"
   xml:space="preserve"
   sodipodi:docname="steam.svg"
   inkscape:version="1.1.1 (3bf5ae0d25, 2021-09-20)"
   xmlns:inkscape="http://www.inkscape.org/namespaces/inkscape"
   xmlns:sodipodi="http://sodipodi.sourceforge.net/DTD/sodipodi-0.dtd"
   xmlns="http://www.w3.org/2000/svg"
   xmlns:svg="http://www.w3.org/2000/svg"
   xmlns:rdf="http://www.w3.org/1999/02/22-rdf-syntax-ns#"
   xmlns:cc="http://creativecommons.org/ns#"
   xmlns:dc="http://purl.org/dc/elements/1.1/"><defs
     id="defs1042" /><sodipodi:namedview
     id="namedview1040"
     pagecolor="#505050"
     bordercolor="#eeeeee"
     borderopacity="1"
     inkscape:pageshadow="0"
     inkscape:pageopacity="0"
     inkscape:pagecheckerboard="0"
     showgrid="false"
     inkscape:zoom="13.640625"
     inkscape:cx="19.83047"
     inkscape:cy="29.507446"
     inkscape:window-width="1491"
     inkscape:window-height="1111"
     inkscape:window-x="879"
     inkscape:window-y="307"
     inkscape:window-maximized="0"
     inkscape:current-layer="Layer_1" /><metadata
     id="metadata15"><rdf:RDF><cc:Work
         rdf:about=""><dc:format>image/svg+xml</dc:format><dc:type
           rdf:resource="http://purl.org/dc/dcmitype/StillImage" /></cc:Work></rdf:RDF></metadata><path
     id="path6"
     d="M 16 0 C 7.2 0 0 7.2 0 16 C 0 24.8 7.2 32 16 32 C 24.8 32 32 24.8 32 16 C 32 7.2 24.8 0 16 0 z M 15.994141 8 C 20.415141 8 24 11.5817 24 16 C 24 20.4182 20.415141 24 15.994141 24 C 12.384852 24 9.3348902 21.612664 8.3359375 18.332031 L 11.367188 19.582031 C 11.519867 20.263921 11.987184 20.862691 12.677734 21.150391 C 13.807634 21.622151 15.110078 21.084658 15.580078 19.955078 C 15.702388 19.659798 15.760193 19.350026 15.751953 19.041016 L 18.554688 17.039062 C 18.577368 17.039856 18.600377 17.041016 18.623047 17.041016 C 20.300347 17.041016 21.664062 15.674294 21.664062 13.996094 C 21.664062 12.317794 20.300347 10.953125 18.623047 10.953125 C 16.946447 10.953125 15.582031 12.317794 15.582031 13.996094 C 15.582031 14.009554 15.583308 14.022516 15.583984 14.035156 L 13.625 16.878906 C 13.30768 16.864496 12.98942 16.920632 12.6875 17.044922 C 12.5544 17.099172 12.42952 17.165278 12.3125 17.242188 L 8.0117188 15.472656 C 8.010716 15.471163 8.0087857 15.470383 8.0078125 15.46875 C 8.2819125 11.29835 11.751741 8 15.994141 8 z M 18.623047 11.96875 C 19.740347 11.96875 20.650391 12.878534 20.650391 13.996094 C 20.650391 15.114594 19.740367 16.025391 18.623047 16.025391 C 17.506447 16.025391 16.597656 15.114624 16.597656 13.996094 C 16.597656 12.878494 17.506427 11.96875 18.623047 11.96875 z M 18.626953 12.46875 C 17.787293 12.46875 17.105469 13.150778 17.105469 13.992188 C 17.105469 14.833667 17.787273 15.515625 18.626953 15.515625 C 19.467313 15.515625 20.148438 14.833667 20.148438 13.992188 C 20.148437 13.150827 19.467313 12.46875 18.626953 12.46875 z M 13.550781 17.386719 C 13.76476 17.388434 13.981736 17.430378 14.191406 17.517578 C 14.614206 17.693368 14.941384 18.024266 15.115234 18.447266 C 15.289074 18.870276 15.289141 19.336173 15.113281 19.757812 C 14.749511 20.630602 13.745447 21.044931 12.873047 20.681641 C 12.470597 20.514081 12.167467 20.207807 11.992188 19.841797 L 12.980469 20.251953 C 13.623829 20.519763 14.363459 20.215016 14.630859 19.572266 C 14.899119 18.928836 14.594192 18.189675 13.951172 17.921875 L 12.927734 17.498047 C 13.125149 17.423197 13.336803 17.385004 13.550781 17.386719 z "
     style="fill:#444444;fill-opacity:1" /></svg>
