<?xml version="1.0" encoding="utf-8"?>
<!-- Generator: Adobe Illustrator 19.2.0, SVG Export Plug-In . SVG Version: 6.00 Build 0)  -->
<svg version="1.0" id="图层_1" xmlns="http://www.w3.org/2000/svg" xmlns:xlink="http://www.w3.org/1999/xlink" x="0px" y="0px"
	 viewBox="0 0 18 18" style="enable-background:new 0 0 18 18;" xml:space="preserve">
<style type="text/css">
	.st0{fill:#ffffff;}
</style>
<g>
	<g>
		<g>
			<g>
				<g>
					<path class="st0" d="M7.5,13C4.5,13,2,10.5,2,7.5S4.5,2,7.5,2S13,4.5,13,7.5S10.5,13,7.5,13z M7.5,3C5,3,3,5,3,7.5S5,12,7.5,12
						S12,10,12,7.5S10,3,7.5,3z"/>
				</g>
				<g>
					<path class="st0" d="M11.5,10.8l4.4,4.4c0.2,0.2,0.2,0.5,0,0.7C15.8,16,15.6,16,15.5,16s-0.3,0-0.4-0.1l-4.4-4.4L11.5,10.8z"/>
				</g>
			</g>
			<g>
				<g>
					<path class="st0" d="M9,8H6C5.7,8,5.5,7.8,5.5,7.5S5.7,7,6,7h3c0.3,0,0.5,0.2,0.5,0.5S9.3,8,9,8z"/>
				</g>
				<g>
					<path class="st0" d="M7.5,9.5C7.2,9.5,7,9.3,7,9V6c0-0.3,0.2-0.5,0.5-0.5S8,5.7,8,6v3C8,9.3,7.8,9.5,7.5,9.5z"/>
				</g>
			</g>
		</g>
	</g>
</g>
</svg>
