<?xml version="1.0" encoding="UTF-8" standalone="no"?>
<!-- Created with Inkscape (http://www.inkscape.org/) -->

<svg
   xmlns:dc="http://purl.org/dc/elements/1.1/"
   xmlns:cc="http://creativecommons.org/ns#"
   xmlns:rdf="http://www.w3.org/1999/02/22-rdf-syntax-ns#"
   xmlns:svg="http://www.w3.org/2000/svg"
   xmlns="http://www.w3.org/2000/svg"
   xmlns:sodipodi="http://sodipodi.sourceforge.net/DTD/sodipodi-0.dtd"
   xmlns:inkscape="http://www.inkscape.org/namespaces/inkscape"
   width="15.011343"
   height="17.125368"
   id="svg3123"
   version="1.1"
   inkscape:version="0.48.4 r9939"
   sodipodi:docname="New document 3">
  <defs
     id="defs3125" />
  <sodipodi:namedview
     id="base"
     pagecolor="#ffffff"
     bordercolor="#666666"
     borderopacity="1.0"
     inkscape:pageopacity="0.0"
     inkscape:pageshadow="2"
     inkscape:zoom="23.548859"
     inkscape:cx="4.7741916"
     inkscape:cy="8.89359"
     inkscape:document-units="px"
     inkscape:current-layer="layer1"
     showgrid="false"
     fit-margin-top="0"
     fit-margin-left="0"
     fit-margin-right="0"
     fit-margin-bottom="0"
     inkscape:window-width="1600"
     inkscape:window-height="846"
     inkscape:window-x="0"
     inkscape:window-y="26"
     inkscape:window-maximized="1">
    <inkscape:grid
       empspacing="5"
       visible="true"
       enabled="true"
       snapvisiblegridlinesonly="true"
       type="xygrid"
       id="grid3138"
       originx="0.00011981584px"
       originy="-1.9329834e-06px" />
  </sodipodi:namedview>
  <metadata
     id="metadata3128">
    <rdf:RDF>
      <cc:Work
         rdf:about="">
        <dc:format>image/svg+xml</dc:format>
        <dc:type
           rdf:resource="http://purl.org/dc/dcmitype/StillImage" />
        <dc:title></dc:title>
      </cc:Work>
    </rdf:RDF>
  </metadata>
  <g
     inkscape:label="Layer 1"
     inkscape:groupmode="layer"
     id="layer1"
     transform="translate(-435.46512,-161.09338)">
    <path
       style="fill:#5a5a5a;fill-opacity:1;stroke:#5a5a5a;stroke-width:0.40114799;stroke-linecap:butt;stroke-linejoin:miter;stroke-miterlimit:4;stroke-opacity:1;stroke-dasharray:none"
       d="m 445.69115,161.28114 c -0.35153,-0.005 -0.69541,0.047 -1.04665,0.0619 -0.99054,0.15705 -1.22642,0.14602 -2.18844,0.46451 -1.04372,0.34553 -1.73596,0.73108 -2.72763,1.30062 -0.33183,0.19058 -0.64241,0.39525 -0.9515,0.61935 -0.30115,0.21835 -0.59933,0.47841 -0.88805,0.71224 -0.25003,0.2529 -0.49518,0.47635 -0.72949,0.74321 -0.73276,0.83459 -1.424,1.96995 -1.49068,3.09674 -0.0128,0.21449 0.0172,0.40494 0.0317,0.61934 0.17342,0.46174 0.191,0.6473 0.5709,0.99096 0.47421,0.42895 1.12053,0.5639 1.74442,0.58837 0.25386,0.01 0.50726,-0.0231 0.76119,-0.0309 0.76551,-0.11121 0.89674,-0.0967 1.64926,-0.30967 0.15496,-0.0438 0.29183,-0.10396 0.44404,-0.15484 0.0791,0.20077 0.18552,0.38406 0.25373,0.58839 0.076,0.22775 0.1524,0.45157 0.22201,0.68129 0.3995,1.43467 0.47261,2.92003 0.53919,4.39735 0.031,0.73987 0.0676,1.48965 0.0951,2.22964 l 0.82463,-0.43353 c -0.0519,-0.73027 -0.0848,-1.43688 -0.12686,-2.16771 -0.0894,-1.47957 -0.1881,-2.98728 -0.5709,-4.42834 -0.0673,-0.23271 -0.14864,-0.45035 -0.22202,-0.68128 -0.054,-0.1697 -0.12956,-0.32789 -0.1903,-0.49548 0.79567,-0.33906 1.5648,-0.75962 2.28359,-1.23869 0.16223,-0.13051 0.32229,-0.23136 0.47575,-0.3716 0.44403,-0.40583 0.86772,-0.96717 0.91978,-1.57934 0.0102,-0.11872 -0.0257,-0.22164 -0.0317,-0.34064 -0.0975,-0.28281 -0.0779,-0.39052 -0.28546,-0.61935 -0.25584,-0.28206 -0.64072,-0.4368 -1.01492,-0.49547 -0.14352,-0.0225 -0.2674,-0.02 -0.41232,-0.0309 -0.15602,0.01 -0.32059,0.0124 -0.47575,0.0309 -0.80028,0.0959 -1.56208,0.40525 -2.28359,0.74322 -0.36497,0.20274 -0.71479,0.41422 -1.07836,0.61934 -0.30415,0.18541 -0.63465,0.3779 -0.88807,0.5264 0.052,0.0404 0.0708,0.0692 0.0951,0.0929 0.2434,0.18436 0.48074,0.37945 0.66605,0.61935 0.0796,0.10302 0.146,0.23508 0.22202,0.34064 0.36084,0.54731 0.63338,1.13232 0.88805,1.73417 -0.39041,0.10312 -0.67904,0.20196 -1.06708,0.25511 -0.0683,0.009 -0.19349,0.0172 -0.26501,0.0236 -0.24783,0.008 -0.48174,0.0103 -0.72948,0 -0.5995,-0.0248 -1.22713,-0.14432 -1.68098,-0.5574 -0.35939,-0.32713 -0.37247,-0.491 -0.53918,-0.92903 -0.0159,-0.20438 -0.0736,-0.4146 -0.0634,-0.61934 0.0537,-1.09372 0.71668,-2.16361 1.42724,-2.97286 0.22976,-0.26167 0.51569,-0.49555 0.7612,-0.74321 0.80756,-0.64912 0.89661,-0.77385 1.80784,-1.30063 0.12452,-0.0721 0.24691,-0.1317 0.38061,-0.1858 0.88939,-0.35965 1.21868,-0.50624 2.15672,-0.71225 0.35458,-0.0779 0.7198,-0.12793 1.07837,-0.1858 0.34576,-0.0147 0.70061,-0.0359 1.04665,-0.0309 0.88758,0.0141 1.79691,0.14309 2.60075,0.52644 0.60746,0.2897 0.66892,0.42847 1.1418,0.86709 0.11932,0.17784 0.25104,0.33652 0.34888,0.52644 0.29702,0.57625 0.3768,1.22684 0.28546,1.85803 -0.0822,0.56772 -0.21127,0.7925 -0.41232,1.3316 -0.31456,0.62528 -0.32611,0.7171 -0.72948,1.30062 -0.14731,0.21311 -0.31964,0.41232 -0.47575,0.61935 l 0.76119,-0.30967 c 0.15596,-0.2094 0.32859,-0.40396 0.47575,-0.61935 0.40465,-0.59219 0.41259,-0.69762 0.72949,-1.33159 0.20403,-0.55103 0.33122,-0.78191 0.41231,-1.36256 0.0906,-0.64948 0.0278,-1.3311 -0.28545,-1.91997 -0.10353,-0.19461 -0.2548,-0.37574 -0.3806,-0.55741 -0.17459,-0.15721 -0.31638,-0.32678 -0.50746,-0.46451 -0.93807,-0.67616 -2.22058,-0.91337 -3.36196,-0.92902 z m -2.82277,4.27349 c 0.13973,0.01 0.27383,0.0104 0.41231,0.0309 0.3506,0.0519 0.71141,0.16901 0.95149,0.43355 0.19117,0.21069 0.16737,0.29641 0.25374,0.55741 0.003,0.11042 0.0436,0.23079 0.0317,0.34064 -0.0632,0.58036 -0.46226,1.10476 -0.88807,1.48643 -0.14917,0.13369 -0.31832,0.24726 -0.47575,0.3716 -0.19299,0.11988 -0.37227,0.22988 -0.5709,0.34064 -0.45628,0.23819 -0.79232,0.32746 -0.94357,0.37161 -0.25804,-0.6755 -0.55758,-1.35854 -0.9277,-1.98191 -0.0716,-0.1106 -0.14712,-0.23211 -0.22202,-0.34064 -0.15724,-0.2279 -0.3803,-0.47598 -0.57883,-0.66967 0.0887,-0.052 0.13528,-0.0901 0.22995,-0.13547 0.71968,-0.3551 1.47807,-0.66917 2.28359,-0.77419 0.15097,-0.0196 0.29214,-0.0201 0.44404,-0.0309 z"
       id="path3368-1-1-1-4"
       inkscape:connector-curvature="0"
       sodipodi:nodetypes="ccssccsccsccccccccccccccsccsccccccccccsccsccsccccccsccccccccccscsccccccccccccccccc"
       inkscape:export-filename="/home/padster/Pictures/Avatars/logos/rect3841.png"
       inkscape:export-xdpi="1124.9999"
       inkscape:export-ydpi="1124.9999" />
  </g>
</svg>
