<?xml version="1.0" encoding="UTF-8" standalone="no"?>
<!-- Created with Inkscape (http://www.inkscape.org/) -->
<svg id="svg4255" xmlns:rdf="http://www.w3.org/1999/02/22-rdf-syntax-ns#" xmlns="http://www.w3.org/2000/svg" height="4.7273mm" width="4.0595mm" version="1.1" xmlns:cc="http://creativecommons.org/ns#" xmlns:dc="http://purl.org/dc/elements/1.1/" viewBox="0 0 14.384088 16.750394">
 <metadata id="metadata4260">
  <rdf:RDF>
   <cc:Work rdf:about="">
    <dc:format>image/svg+xml</dc:format>
    <dc:type rdf:resource="http://purl.org/dc/dcmitype/StillImage"/>
    <dc:title/>
   </cc:Work>
  </rdf:RDF>
 </metadata>
 <g id="layer1" transform="translate(121.48 67.442)">
  <path id="path3368-1-1-1" d="m-111.6-67.441c-0.34636-0.005-0.68518 0.0474-1.0312 0.0625-0.97597 0.15849-1.2084 0.14736-2.1562 0.46875-1.0284 0.34869-1.7104 0.73776-2.6875 1.3125-0.32695 0.19232-0.63296 0.39886-0.9375 0.625-0.29673 0.22035-0.59052 0.48279-0.875 0.71875-0.24635 0.2552-0.48789 0.4807-0.71875 0.75-0.72198 0.8422-1.403 1.9879-1.4688 3.125-0.0126 0.21646 0.017 0.40864 0.0312 0.625 0.17086 0.46596 0.18819 0.65321 0.5625 1 0.46723 0.43288 1.104 0.56905 1.7188 0.59375 0.25013 0.0101 0.4998-0.0233 0.75-0.0312 0.75424-0.11223 0.88355-0.0976 1.625-0.3125 0.15268-0.0442 0.28754-0.10491 0.4375-0.15625 0.0779 0.2026 0.18279 0.38757 0.25 0.59375 0.0749 0.22983 0.15015 0.45569 0.21875 0.68751 0.39362 1.4478 0.46565 2.9467 0.53125 4.4375 0.0306 0.74663 0.0666 1.5032 0.0937 2.25l0.8125-0.4375c-0.051-0.73693-0.0836-1.45-0.125-2.1875-0.0881-1.4931-0.18532-3.0146-0.5625-4.4688-0.0663-0.23483-0.14645-0.45446-0.21875-0.6875-0.0531-0.17125-0.12765-0.33088-0.1875-0.5 0.78398-0.34215 1.5418-0.76656 2.25-1.25 0.15984-0.1317 0.31755-0.23347 0.46875-0.375 0.4375-0.40953 0.85495-0.976 0.90625-1.5938 0.01-0.1198-0.0252-0.22366-0.0312-0.34375-0.0961-0.28539-0.0767-0.39409-0.28125-0.625-0.25208-0.28464-0.63131-0.4408-1-0.5-0.1414-0.0227-0.26347-0.0202-0.40625-0.0312-0.15372 0.01-0.31587 0.0125-0.46875 0.0312-0.78851 0.0968-1.5391 0.40895-2.25 0.75-0.35959 0.2046-0.70427 0.418-1.0625 0.625-0.29966 0.1871-0.62531 0.38135-0.875 0.5312 0.0512 0.0408 0.0698 0.0698 0.0937 0.0937 0.23983 0.18604 0.47367 0.38291 0.65625 0.625 0.0784 0.10396 0.14385 0.23723 0.21875 0.34375 0.35555 0.5523 0.62408 1.1427 0.875 1.75-0.38467 0.10406-0.66905 0.20381-1.0514 0.25744-0.0673 0.009-0.19063 0.0174-0.26111 0.0238-0.24418 0.008-0.47466 0.0104-0.71875 0-0.59068-0.025-1.2091-0.14564-1.6562-0.5625-0.35411-0.33011-0.367-0.49547-0.53125-0.9375-0.0157-0.20625-0.0725-0.41839-0.0625-0.625 0.0529-1.1037 0.70614-2.1834 1.4062-3 0.22638-0.26406 0.50811-0.50008 0.75-0.75 0.79568-0.65505 0.88342-0.78092 1.7812-1.3125 0.12268-0.0727 0.24327-0.1329 0.375-0.1875 0.87631-0.36294 1.2008-0.51086 2.125-0.71875 0.34936-0.0786 0.70921-0.1291 1.0625-0.1875 0.34068-0.0148 0.6903-0.0362 1.0312-0.0312 0.87453 0.0142 1.7705 0.1444 2.5625 0.53125 0.59852 0.29234 0.65908 0.43238 1.125 0.875 0.11757 0.17947 0.24735 0.3396 0.34375 0.53125 0.29265 0.58151 0.37125 1.238 0.28125 1.875-0.081 0.5729-0.20815 0.79973-0.40625 1.3438-0.30993 0.63099-0.32131 0.72365-0.71875 1.3125-0.14514 0.21505-0.31493 0.41608-0.46875 0.625l0.75-0.3125c0.15366-0.21131 0.32375-0.40765 0.46875-0.625 0.39869-0.5976 0.40652-0.70399 0.71875-1.3438 0.20104-0.55607 0.32635-0.78905 0.40625-1.375 0.0893-0.65541 0.0274-1.3432-0.28125-1.9375-0.10201-0.19639-0.25105-0.37917-0.375-0.5625-0.17203-0.15864-0.31173-0.32976-0.5-0.46875-0.92426-0.68233-2.1879-0.9217-3.3125-0.9375zm-2.7812 4.3125c0.13768 0.01 0.26981 0.0105 0.40625 0.0312 0.34544 0.0524 0.70095 0.17055 0.9375 0.4375 0.18835 0.21262 0.1649 0.29913 0.25 0.5625 0.003 0.11143 0.0431 0.2329 0.0312 0.34375-0.0623 0.58566-0.45545 1.1149-0.875 1.5-0.14697 0.13492-0.31364 0.24953-0.46875 0.375-0.19015 0.12097-0.3668 0.23198-0.5625 0.34375-0.44957 0.24036-0.78067 0.33045-0.92968 0.375-0.25425-0.68166-0.54938-1.3709-0.91407-2-0.0705-0.11161-0.14495-0.23424-0.21875-0.34375-0.15493-0.22998-0.37469-0.48033-0.57031-0.67578 0.0874-0.0525 0.13329-0.0909 0.22656-0.13672 0.70909-0.35834 1.4563-0.67527 2.25-0.78125 0.14875-0.0198 0.28784-0.0203 0.4375-0.0312z" fill="#5a5a5a"/>
 </g>
</svg>
