<?xml version="1.0" encoding="UTF-8" standalone="no"?>
<!-- Created with Inkscape (http://www.inkscape.org/) -->

<svg
   xmlns:dc="http://purl.org/dc/elements/1.1/"
   xmlns:cc="http://creativecommons.org/ns#"
   xmlns:rdf="http://www.w3.org/1999/02/22-rdf-syntax-ns#"
   xmlns:svg="http://www.w3.org/2000/svg"
   xmlns="http://www.w3.org/2000/svg"
   xmlns:sodipodi="http://sodipodi.sourceforge.net/DTD/sodipodi-0.dtd"
   xmlns:inkscape="http://www.inkscape.org/namespaces/inkscape"
   width="9.0311108mm"
   height="9.0311108mm"
   viewBox="0 0 31.999999 31.999998"
   id="svg4255"
   version="1.1"
   inkscape:version="0.91 r13725"
   sodipodi:docname="p-circled-favicon.svg">
  <defs
     id="defs4257" />
  <sodipodi:namedview
     id="base"
     pagecolor="#ffffff"
     bordercolor="#666666"
     borderopacity="1.0"
     inkscape:pageopacity="0.0"
     inkscape:pageshadow="2"
     inkscape:zoom="15.839192"
     inkscape:cx="7.5452169"
     inkscape:cy="13.533079"
     inkscape:document-units="px"
     inkscape:current-layer="layer1"
     showgrid="false"
     fit-margin-top="0"
     fit-margin-left="0"
     fit-margin-right="0"
     fit-margin-bottom="0"
     inkscape:window-width="1600"
     inkscape:window-height="846"
     inkscape:window-x="1024"
     inkscape:window-y="27"
     inkscape:window-maximized="1" />
  <metadata
     id="metadata4260">
    <rdf:RDF>
      <cc:Work
         rdf:about="">
        <dc:format>image/svg+xml</dc:format>
        <dc:type
           rdf:resource="http://purl.org/dc/dcmitype/StillImage" />
        <dc:title></dc:title>
      </cc:Work>
    </rdf:RDF>
  </metadata>
  <g
     inkscape:label="Layer 1"
     inkscape:groupmode="layer"
     id="layer1"
     transform="translate(121.47781,82.69117)">
    <circle
       style="opacity:1;fill:#eeeeee;fill-opacity:1;stroke:none;stroke-width:20;stroke-linecap:butt;stroke-linejoin:round;stroke-miterlimit:4;stroke-dasharray:none;stroke-opacity:1"
       id="path4134"
       cx="-105.47781"
       cy="-66.69117"
       r="16" />
    <path
       style="fill:#5a5a5a;fill-opacity:1;stroke:none;stroke-width:0.40000001;stroke-miterlimit:4;stroke-dasharray:none;stroke-opacity:1"
       d="m -102.877,-80.626723 c -0.57791,-0.0083 -1.14324,0.07923 -1.72064,0.104477 -1.62842,0.264933 -2.01621,0.246327 -3.59775,0.783562 -1.71581,0.582873 -2.85385,1.233243 -4.48412,2.193982 -0.5455,0.321482 -1.05609,0.666734 -1.56422,1.044748 -0.49511,0.368338 -0.98528,0.807035 -1.45994,1.201466 -0.41105,0.426592 -0.81405,0.803541 -1.19926,1.253703 -1.20462,1.407823 -2.34098,3.323012 -2.4506,5.223758 -0.021,0.361836 0.0283,0.683083 0.0521,1.044752 0.28509,0.7789 0.31399,1.091908 0.93854,1.671603 0.77958,0.723603 1.8421,0.951224 2.86776,0.992511 0.41733,0.01688 0.8339,-0.03894 1.25137,-0.05215 1.25845,-0.187606 1.47421,-0.163152 2.71133,-0.522377 0.25475,-0.07389 0.47976,-0.175367 0.72997,-0.261187 0.12998,0.338665 0.30499,0.647862 0.41713,0.992513 0.12515,0.384186 0.25052,0.761733 0.36499,1.149243 0.65675,2.420096 0.77694,4.925697 0.8864,7.417739 0.0511,1.248067 0.11112,2.512837 0.15634,3.761105 l 1.35566,-0.731326 c -0.0851,-1.231853 -0.13949,-2.423809 -0.20855,-3.656629 -0.14699,-2.49584 -0.30923,-5.039131 -0.93856,-7.469993 -0.11062,-0.392542 -0.24434,-0.759678 -0.36497,-1.149227 -0.0886,-0.286261 -0.213,-0.553099 -0.31286,-0.835802 1.3081,-0.571937 2.57248,-1.281381 3.75415,-2.089502 0.26668,-0.22015 0.52984,-0.390269 0.78211,-0.626852 0.72998,-0.68457 1.42652,-1.631483 1.51209,-2.664116 0.0167,-0.200257 -0.0418,-0.373871 -0.0521,-0.574613 -0.16035,-0.477058 -0.12798,-0.658762 -0.46928,-1.044753 -0.4206,-0.475803 -1.05335,-0.736843 -1.66851,-0.835799 -0.23591,-0.03796 -0.43959,-0.03377 -0.67782,-0.05215 -0.25648,0.01672 -0.52705,0.02088 -0.78212,0.05215 -1.31565,0.161814 -2.56802,0.6836 -3.75415,1.253701 -0.59998,0.34201 -1.17507,0.698729 -1.77278,1.044753 -0.5,0.312756 -1.04335,0.637463 -1.45997,0.887954 0.0854,0.0682 0.11647,0.11668 0.15634,0.156632 0.40018,0.310989 0.79035,0.640075 1.09497,1.044754 0.13082,0.173779 0.24003,0.396554 0.36499,0.574614 0.59324,0.923225 1.04129,1.910073 1.45996,2.925302 -0.64184,0.17395 -1.11633,0.340691 -1.75428,0.43034 -0.11229,0.01504 -0.31806,0.02909 -0.43566,0.03979 -0.40741,0.01337 -0.79196,0.01738 -1.19923,0 -0.98556,-0.04179 -2.01736,-0.243453 -2.76348,-0.940277 -0.59084,-0.551813 -0.61233,-0.828229 -0.8864,-1.567127 -0.0262,-0.344768 -0.12096,-0.699381 -0.10427,-1.044754 0.0883,-1.844946 1.17821,-3.649708 2.34634,-5.014806 0.37773,-0.441405 0.84779,-0.835934 1.25137,-1.253701 1.32761,-1.094985 1.474,-1.305391 2.97206,-2.193979 0.20468,-0.121529 0.4059,-0.222156 0.62567,-0.313425 1.46213,-0.606692 2.00346,-0.853956 3.54561,-1.201465 0.58288,-0.131391 1.18329,-0.215803 1.77277,-0.313428 0.56843,-0.02474 1.15177,-0.0605 1.72067,-0.05215 1.45916,0.02375 2.95408,0.24138 4.275549,0.888037 0.998627,0.488676 1.099674,0.722766 1.877084,1.462653 0.196138,0.300005 0.412699,0.567678 0.573531,0.888039 0.4883,0.972054 0.619448,2.069511 0.469279,3.134255 -0.135152,0.957663 -0.347308,1.336831 -0.677815,2.246217 -0.517133,1.054764 -0.536121,1.209655 -1.199269,2.193979 -0.242156,0.359478 -0.525459,0.695518 -0.782099,1.04475 l 1.251362,-0.522375 c 0.256389,-0.353227 0.540193,-0.68143 0.782115,-1.044751 0.665217,-0.998952 0.678298,-1.176792 1.199253,-2.246217 0.335429,-0.929528 0.544531,-1.318981 0.677831,-2.298454 0.149002,-1.095585 0.04572,-2.245379 -0.469262,-3.238728 -0.17021,-0.328289 -0.418873,-0.633823 -0.62569,-0.94028 -0.28704,-0.265183 -0.520119,-0.551227 -0.834241,-0.78356 -1.542156,-1.140586 -3.650568,-1.540718 -5.526968,-1.567129 z m -4.64054,7.208787 c 0.22971,0.01672 0.45019,0.01755 0.67783,0.05215 0.57637,0.0876 1.16954,0.285094 1.56423,0.731329 0.31426,0.355415 0.27513,0.500026 0.41712,0.940276 0.005,0.186266 0.0719,0.389317 0.0521,0.574613 -0.10396,0.978991 -0.75993,1.863604 -1.45995,2.507404 -0.24521,0.225533 -0.52331,0.417114 -0.78212,0.626851 -0.31727,0.202213 -0.612,0.387779 -0.93853,0.574612 -0.75012,0.40179 -1.30254,0.552383 -1.55119,0.626853 -0.42422,-1.139466 -0.91665,-2.291668 -1.52514,-3.343205 -0.11763,-0.186569 -0.24184,-0.391557 -0.36498,-0.574613 -0.2585,-0.384438 -0.62517,-0.802923 -0.95157,-1.129637 0.14583,-0.08776 0.2224,-0.151952 0.37803,-0.228542 1.18313,-0.599001 2.4299,-1.128781 3.75415,-1.305941 0.24818,-0.0331 0.48026,-0.03393 0.72997,-0.05215 z"
       id="path3368-1-1-1"
       inkscape:connector-curvature="0"
       sodipodi:nodetypes="ccssccsccsccccccccccccccsccsccccccccccsccsccsccccccsccccccccccscsccccccccccccccccc"
       inkscape:export-filename="/home/padster/Pictures/Avatars/logos/1000.png"
       inkscape:export-xdpi="2249.9998"
       inkscape:export-ydpi="2249.9998" />
  </g>
</svg>
