<?xml version="1.0" encoding="UTF-8" standalone="no"?>
<!-- Created with Inkscape (http://www.inkscape.org/) -->

<svg
   xmlns:dc="http://purl.org/dc/elements/1.1/"
   xmlns:cc="http://creativecommons.org/ns#"
   xmlns:rdf="http://www.w3.org/1999/02/22-rdf-syntax-ns#"
   xmlns:svg="http://www.w3.org/2000/svg"
   xmlns="http://www.w3.org/2000/svg"
   xmlns:sodipodi="http://sodipodi.sourceforge.net/DTD/sodipodi-0.dtd"
   xmlns:inkscape="http://www.inkscape.org/namespaces/inkscape"
   width="600"
   height="600"
   id="svg2"
   version="1.1"
   inkscape:version="0.48.2 r9819"
   sodipodi:docname="New document 1">
  <defs
     id="defs4" />
  <sodipodi:namedview
     id="base"
     pagecolor="#ffffff"
     bordercolor="#666666"
     borderopacity="1.0"
     inkscape:pageopacity="0.0"
     inkscape:pageshadow="2"
     inkscape:zoom="0.7"
     inkscape:cx="261.3992"
     inkscape:cy="388.82529"
     inkscape:document-units="px"
     inkscape:current-layer="layer1"
     showgrid="false"
     fit-margin-top="0"
     fit-margin-left="0"
     fit-margin-right="0"
     fit-margin-bottom="0"
     inkscape:window-width="1280"
     inkscape:window-height="962"
     inkscape:window-x="-8"
     inkscape:window-y="-8"
     inkscape:window-maximized="0" />
  <metadata
     id="metadata7">
    <rdf:RDF>
      <cc:Work
         rdf:about="">
        <dc:format>image/svg+xml</dc:format>
        <dc:type
           rdf:resource="http://purl.org/dc/dcmitype/StillImage" />
        <dc:title></dc:title>
      </cc:Work>
    </rdf:RDF>
  </metadata>
  <g
     inkscape:label="Layer 1"
     inkscape:groupmode="layer"
     id="layer1"
     transform="translate(-84.68542,-214.31259)">
    <path
       style="fill:#fff6e6;fill-opacity:1"
       d="m 370.29719,814.13123 c -3.07299,-0.2271 -5.95064,-0.77184 -6.39477,-1.21054 -0.44414,-0.43869 -0.0985,-13.28661 0.76806,-28.55091 0.86658,-15.26432 3.83901,-68.54002 6.60542,-118.39046 2.7664,-49.85043 5.31589,-94.36034 5.66551,-98.91089 l 0.63568,-8.27373 11.34407,-5.57801 c 23.97647,-11.78951 38.88046,-24.31155 45.97973,-38.63126 3.88889,-7.84417 3.96725,-8.22325 3.96725,-19.19449 0,-10.8442 -0.11848,-11.43965 -3.8095,-19.14587 -2.09522,-4.37447 -3.8095,-8.31161 -3.8095,-8.74922 0,-1.47962 28.80316,-27.34989 30.45054,-27.34989 2.17528,0 48.8329,23.92606 50.95126,26.12785 1.85353,1.92652 60.81942,132.18145 60.81942,134.34935 0,5.11994 -34.93198,43.07663 -39.64392,43.07663 -1.89967,0 -43.33544,-12.5135 -97.46131,-29.43308 -6.96393,-2.1769 -13.02162,-3.59919 -13.46154,-3.16064 -0.61929,0.61738 9.28514,161.99177 11.80335,192.31381 0.28755,3.46234 0.1099,6.54956 -0.39476,6.86048 -3.05655,1.88319 -51.33878,4.78762 -64.01499,3.85087 z m -21.84111,-2.05052 c -4.46981,-0.74814 -13.61261,-2.27216 -20.31732,-3.38672 -13.66444,-2.27147 -26.06609,-4.96926 -27.09231,-5.89351 -0.65443,-0.5894 3.66451,-38.68323 4.68689,-41.33922 0.65561,-1.70315 2.90379,-1.64031 10.25556,0.28672 8.82458,2.31308 26.186,5.48065 35.34472,6.44861 4.37628,0.46251 8.27929,1.23622 8.67334,1.71935 1.18185,1.44898 -1.01919,42.7501 -2.30026,43.16293 -0.61803,0.19916 -4.78081,-0.25001 -9.25062,-0.99816 z m 92.61688,-3.05672 c -0.76173,-1.27229 -3.08349,-36.67855 -2.4468,-37.31326 0.3269,-0.32589 10.32164,-4.66771 22.21052,-9.6485 51.18698,-21.44447 82.66721,-41.69018 112.80739,-72.54917 36.95047,-37.83169 59.28923,-82.65957 67.49171,-135.43772 2.53618,-16.31882 2.58501,-56.53749 0.0883,-72.71752 -9.09936,-58.96855 -34.48527,-110.41478 -73.81652,-149.59407 -11.99212,-11.94579 -19.24224,-17.83762 -36.7342,-29.85211 -4.05461,-2.78494 -10.22156,-7.45606 -13.70435,-10.38024 -3.48278,-2.92419 -6.76724,-5.3167 -7.2988,-5.3167 -2.84062,0 -3.08791,-2.88109 -1.59484,-18.58091 1.66865,-17.54608 1.40761,-18.88921 -3.67126,-18.88921 -3.72451,0 -6.45047,2.29654 -16.3689,13.79025 -7.86177,9.1104 -8.57172,9.67318 -11.50326,9.11837 -22.36155,-4.23191 -51.66463,-10.63682 -52.50717,-11.47674 -0.5922,-0.59036 -1.72985,-8.53086 -2.52813,-17.64557 -0.79827,-9.1147 -1.70417,-17.36969 -2.01309,-18.34442 -0.78964,-2.49145 -4.74314,-2.21507 -7.2432,0.50635 -1.15127,1.25323 -5.42109,7.7472 -9.48848,14.43106 -4.06739,6.68386 -8.07594,12.94998 -8.90788,13.9247 -1.24753,1.46163 -3.23375,1.77223 -11.33293,1.77223 -17.89158,0 -53.76172,7.04215 -79.96906,15.6998 -96.21472,31.78472 -159.44628,105.63261 -174.72219,204.05734 -2.56015,16.49534 -2.55292,57.51314 0.013,73.92751 8.71841,55.7717 30.27703,101.25813 67.61473,142.66005 8.7498,9.70224 29.40212,28.26839 41.06718,36.91885 4.36195,3.2347 8.15606,6.4664 8.43135,7.18155 0.44064,1.14474 -9.09396,37.18082 -10.39106,39.27304 -1.00565,1.62213 -2.74244,0.68041 -12.50922,-6.78271 -5.46686,-4.17741 -10.31918,-7.59529 -10.78295,-7.59529 -0.46376,0 -6.12761,-3.97717 -12.58632,-8.83816 -14.42059,-10.85327 -40.6166,-36.74223 -51.00294,-50.40513 C 117.94066,661.80497 98.544674,618.21192 89.547998,570.27864 84.600274,543.91776 83.230267,504.36447 86.356422,478.13554 93.15995,421.05293 114.59344,369.36036 149.1372,326.72292 c 9.67925,-11.94711 31.86025,-33.98005 43.3816,-43.09202 36.21238,-28.63951 83.57621,-50.55804 133.0803,-61.58546 30.34331,-6.75922 39.01298,-7.73285 68.85646,-7.73285 26.48705,0 28.56931,0.14264 45.2317,3.09837 25.23663,4.47672 58.81709,13.683 68.73932,18.8453 1.41242,0.73484 3.04865,1.33889 3.63606,1.34233 3.29264,0.0192 31.86438,19.00093 44.138,29.32319 26.95219,22.66709 35.38173,30.10757 44.2071,39.02018 21.24202,21.45199 38.20342,45.40461 52.25844,73.79859 16.30409,32.93751 25.10523,61.67358 30.13197,98.38187 2.49949,18.25282 2.52008,58.70486 0.0389,76.45928 -4.97626,35.60858 -13.24241,62.67436 -28.66004,93.84128 -20.27228,40.98064 -48.6513,74.87788 -86.4234,103.22819 -28.02577,21.03507 -60.57483,37.82767 -98.27629,50.70238 -7.19015,2.45538 -14.3674,5.1316 -15.94943,5.94714 -2.99362,1.54324 -11.66262,2.04669 -12.45496,0.7233 z M 280.901,797.75375 c -16.47917,-6.52728 -38.75314,-18.63063 -39.88367,-21.67219 -0.50606,-1.36154 47.35959,-190.71713 48.81674,-193.11807 0.95362,-1.57126 18.52883,-7.41936 19.47147,-6.47908 0.30121,0.30044 0.56595,8.36926 0.58833,17.93071 0.0358,15.25514 0.33168,18.33865 2.41642,25.17493 l 2.37571,7.79049 -8.79385,82.84667 c -10.83945,102.11814 -9.36391,91.46689 -12.66214,91.4019 -1.47305,-0.029 -7.02111,-1.77294 -12.32901,-3.87536 z M 442.96465,686.99297 c -0.76447,-2.35393 -2.84822,-53.26922 -2.24428,-54.83814 0.49737,-1.29213 6.08491,0.31037 32.91774,9.44078 17.77527,6.0484 34.1379,11.75556 36.36139,12.68257 l 4.04271,1.6855 -2.50402,1.88505 c -7.1156,5.3567 -33.15414,17.66762 -54.8924,25.95292 -12.97848,4.94662 -13.10173,4.97537 -13.68114,3.19132 z m -94.52933,-46.2285 c -5.90522,-3.37672 -12.66519,-10.3267 -15.57516,-16.01298 -4.93251,-9.63841 -7.15402,-27.8051 -7.22521,-59.08494 -0.0354,-15.53427 -0.0756,-15.81403 -2.91444,-20.25412 -4.34542,-6.79647 -15.49941,-16.61826 -22.8367,-20.10914 -12.10313,-5.75833 -27.17385,-7.96963 -42.59518,-6.24992 l -9.89818,1.10379 -23.6254,-16.2945 c -12.99397,-8.96196 -24.4889,-17.12862 -25.54431,-18.14809 -2.78199,-2.68729 -1.47026,-4.60669 4.10459,-6.0061 2.6941,-0.67627 5.3616,-1.60266 5.92775,-2.05867 0.56616,-0.456 15.42927,-5.22883 33.02915,-10.60628 17.59987,-5.37745 41.82828,-13.17297 53.84089,-17.32336 21.83831,-7.54519 21.84663,-7.54712 64.81222,-14.99085 23.63411,-4.09456 43.44595,-7.91805 44.02632,-8.4966 0.58037,-0.57857 10.3575,-25.36014 21.72695,-55.07014 11.36946,-29.71002 21.14129,-54.17425 21.71517,-54.36496 0.57388,-0.19069 7.74227,-8.40308 15.92975,-18.24976 8.18747,-9.84667 15.90015,-18.81448 17.13926,-19.92845 1.23913,-1.11397 5.1385,-5.89901 8.66527,-10.63341 10.37012,-13.92103 14.9644,-18.11466 16.7283,-15.26949 0.31841,0.51359 -3.31346,25.3787 -8.07082,55.2558 l -8.64973,54.322 -19.42015,37.65995 c -10.68107,20.71297 -20.06167,38.68596 -20.84576,39.93996 -0.78409,1.25401 -8.95747,7.29893 -18.16305,13.43316 -9.20558,6.13422 -16.73743,11.42436 -16.73743,11.75586 0,0.33151 2.23691,3.04266 4.97092,6.02479 7.80031,8.50823 9.7599,13.3756 9.75514,24.2304 -0.003,7.94867 -0.3607,9.80482 -2.79302,14.51306 -5.83638,11.29743 -15.63941,20.21837 -30.21862,27.49945 -7.88578,3.93828 -20.58058,8.51663 -26.883,9.69528 -1.98848,0.37189 -3.8811,1.1047 -4.20582,1.62846 -0.5128,0.82714 -7.44804,86.63381 -7.49615,92.74654 -0.0244,3.10029 -2.42052,2.91885 -8.67355,-0.65674 z M 333.79714,476.89465 c 3.58649,-3.00843 15.16687,-17.254 15.16687,-18.65746 0,-2.44119 -19.83242,0.56364 -28.08623,4.25536 -7.71399,3.45025 -20.97003,12.81616 -20.10781,14.20693 0.31254,0.50412 3.3984,0.95651 6.85746,1.00531 3.45907,0.0488 8.57491,0.44361 11.36854,0.87739 9.32886,1.44851 11.33529,1.21975 14.80117,-1.68753 z m 19.23033,-53.00122 c 0,-1.14106 4.35147,-28.97111 9.66994,-61.84458 l 9.66994,-59.76991 19.32134,-35.62835 c 20.78042,-38.3189 22.5965,-41.28811 24.24944,-39.64667 0.65756,0.65299 1.6805,21.77704 2.72604,56.29335 l 1.67352,55.24814 -13.46893,39.63375 c -9.339,27.48101 -13.97382,39.78939 -15.11556,40.14129 -2.45011,0.75517 -36.36923,7.64762 -37.63546,7.64762 -0.59964,0 -1.09027,-0.93358 -1.09027,-2.07464 z"
       id="path2996"
       inkscape:connector-curvature="0"
       inkscape:export-filename="H:\Web Design\Final\travel\assets\logo-80-light.png"
       inkscape:export-xdpi="12.152468"
       inkscape:export-ydpi="12.152468" />
  </g>
</svg>
