<?xml version="1.0" encoding="UTF-8" standalone="no"?>
<!-- Created with Inkscape (http://www.inkscape.org/) -->

<svg
   xmlns:dc="http://purl.org/dc/elements/1.1/"
   xmlns:cc="http://creativecommons.org/ns#"
   xmlns:rdf="http://www.w3.org/1999/02/22-rdf-syntax-ns#"
   xmlns:svg="http://www.w3.org/2000/svg"
   xmlns="http://www.w3.org/2000/svg"
   xmlns:sodipodi="http://sodipodi.sourceforge.net/DTD/sodipodi-0.dtd"
   xmlns:inkscape="http://www.inkscape.org/namespaces/inkscape"
   width="4817.1255"
   height="341.60614"
   id="svg3843"
   version="1.1"
   inkscape:version="0.48.4 r9939"
   sodipodi:docname="social-lineup.svg">
  <defs
     id="defs3845" />
  <sodipodi:namedview
     id="base"
     pagecolor="#ffffff"
     bordercolor="#666666"
     borderopacity="1.0"
     inkscape:pageopacity="0.0"
     inkscape:pageshadow="2"
     inkscape:zoom="0.12374369"
     inkscape:cx="1876.7846"
     inkscape:cy="722.49231"
     inkscape:document-units="px"
     inkscape:current-layer="layer1"
     showgrid="false"
     fit-margin-top="0"
     fit-margin-left="0"
     fit-margin-right="0"
     fit-margin-bottom="0"
     inkscape:window-width="1261"
     inkscape:window-height="521"
     inkscape:window-x="333"
     inkscape:window-y="104"
     inkscape:window-maximized="0" />
  <metadata
     id="metadata3848">
    <rdf:RDF>
      <cc:Work
         rdf:about="">
        <dc:format>image/svg+xml</dc:format>
        <dc:type
           rdf:resource="http://purl.org/dc/dcmitype/StillImage" />
        <dc:title></dc:title>
      </cc:Work>
    </rdf:RDF>
  </metadata>
  <g
     inkscape:label="Layer 1"
     inkscape:groupmode="layer"
     id="layer1"
     transform="translate(618.08886,-1106.063)">
    <path
       id="path3852"
       d="m -618.08886,1278.6181 h 26.12 v -11.85 -11.608 -1.936 c 0,-11.174 0.29,-28.441 8.415,-39.131 8.562,-11.32 20.316,-19.009 40.534,-19.009 32.939,0 46.823,4.69 46.823,4.69 l -6.53,38.696 c 0,0 -10.882,-3.145 -21.041,-3.145 -10.157,0 -19.252,3.628 -19.252,13.786 v 4.112 13.544 11.85 h 41.646 l -2.902,37.776 h -38.744 v 131.276 h -48.949 v -131.274 h -26.12 v -37.777 z"
       inkscape:connector-curvature="0"
       style="fill:#fff6e6;fill-opacity:1;stroke:none" />
    <g
       id="g3862"
       transform="translate(1202.0196,1101.1691)"
       style="fill:#fff6e6;fill-opacity:1;stroke:none">
      <polygon
         id="polygon3864"
         points="301.125,199.137 314.569,199.137 314.569,145.36 368.346,145.36 368.346,131.916 314.569,131.916 314.569,78.139 301.125,78.139 301.125,131.916 247.348,131.916 247.348,145.36 301.125,145.36 "
         style="fill:#fff6e6;fill-opacity:1;stroke:none" />
      <path
         id="path3866"
         d="m 188.43,232.613 c -7.512,-5.317 -21.877,-18.25 -21.877,-25.851 0,-8.908 2.543,-13.298 15.951,-23.774 13.745,-10.74 23.472,-25.836 23.472,-43.4 0,-20.905 -9.311,-41.283 -26.79,-48.004 h 26.352 l 18.599,-13.445 c 0,0 -62.333,0 -83.108,0 -37.26,0 -72.326,28.228 -72.326,60.926 0,33.413 25.398,60.381 63.304,60.381 2.636,0 5.197,-0.052 7.705,-0.232 -2.46,4.709 -4.219,10.015 -4.219,15.521 0,9.286 4.995,16.815 11.312,22.96 -4.771,0 -9.381,0.138 -14.407,0.138 -46.15,0 -81.671,29.393 -81.671,59.872 0,30.017 38.94,48.795 85.092,48.795 52.613,0 81.672,-29.853 81.672,-59.872 -0.003,-24.071 -7.104,-38.486 -29.061,-54.015 l 0,0 z m -44.399,-41.638 0,0 c -21.414,-0.64 -41.762,-23.955 -45.458,-52.069 -3.695,-28.119 10.661,-49.641 32.069,-49.001 21.406,0.644 41.763,23.205 45.46,51.32 3.694,28.119 -10.666,50.389 -32.071,49.75 l 0,0 z m -8.385,142.254 0,0 c -31.898,0 -54.938,-20.192 -54.938,-44.449 0,-23.773 28.576,-43.562 60.475,-43.218 7.445,0.079 14.382,1.277 20.681,3.315 17.315,12.042 29.737,18.847 33.241,32.57 0.66,2.784 1.018,5.646 1.018,8.57 0,24.256 -15.63,43.212 -60.477,43.212 z"
         inkscape:connector-curvature="0"
         style="fill:#fff6e6;fill-opacity:1;stroke:none" />
    </g>
    <g
       id="g3878"
       transform="translate(822.12231,1120.9861)"
       style="fill:#fff6e6;fill-opacity:1;stroke:none">
      <path
         id="path3880"
         d="m 107.855,132.377 c 19.812,0 32.15,-13.141 32.15,-29.546 -0.369,-16.771 -12.338,-29.54 -31.771,-29.54 -19.441,0 -32.15,12.769 -32.15,29.54 0,16.405 12.334,29.546 31.402,29.546 h 0.369 l 0,0 z M 136.27,326.683 V 155.711 H 79.443 v 170.972 h 56.827 z"
         clip-rule="evenodd"
         inkscape:connector-curvature="0"
         style="fill:#fff6e6;fill-opacity:1;fill-rule:evenodd;stroke:none" />
      <path
         id="path3882"
         d="m 167.715,326.683 h 56.826 v -95.479 c 0,-5.108 0.369,-10.217 1.871,-13.863 4.109,-10.213 13.457,-20.788 29.156,-20.788 20.568,0 28.787,15.683 28.787,38.664 v 91.466 h 56.826 V 228.65 c 0,-52.514 -28.033,-76.952 -65.426,-76.952 -30.658,0 -44.117,17.139 -51.59,28.81 h 0.375 v -24.797 h -56.826 c 0.747,16.039 0.001,170.972 0.001,170.972 l 0,0 z"
         clip-rule="evenodd"
         inkscape:connector-curvature="0"
         style="fill:#fff6e6;fill-opacity:1;fill-rule:evenodd;stroke:none" />
    </g>
    <path
       id="path3894"
       d="m 387.15389,1278.1641 c 23.399,0 42.374,-18.976 42.374,-42.375 0,-23.397 -18.975,-42.374 -42.374,-42.374 -23.39696,0 -42.37596,18.977 -42.37596,42.374 0,23.4 18.979,42.375 42.37596,42.375 l 0,0 z m -138.68196,-10.785 c 14.036,0 25.424,-11.381 25.424,-25.426 0,-14.038 -11.388,-25.426 -25.424,-25.426 -14.04,0 -25.426,11.388 -25.426,25.426 0,14.045 11.385,25.426 25.426,25.426 l 0,0 z m 0,4.621 c 13.2,0 24.672,7.371 30.528,18.224 7.741,-8.362 18.811,-13.599 31.108,-13.599 16.89,0 31.468,9.878 38.277,24.175 10.252,-9.279 23.84796,-14.932 38.76896,-14.932 31.919,0 57.784,25.866 57.784,57.788 0,1.3 -0.107,2.571 -0.191,3.849 h 0.191 v 100.164 H 329.36793 v -52.393 h -61.637 v -26.196 h -53.931 v -60.096 h 0.116 c -0.056,-0.771 -0.116,-1.533 -0.116,-2.313 0,-19.152 15.517,-34.671 34.672,-34.671 l 0,0 z m 61.636,-1.033 c 17.157,0 31.07,-13.904 31.07,-31.07 0,-17.157 -13.913,-31.073 -31.07,-31.073 -17.158,0 -31.074,13.916 -31.074,31.073 0,17.166 13.916,31.07 31.074,31.07 z"
       clip-rule="evenodd"
       inkscape:connector-curvature="0"
       style="fill:#fff6e6;fill-opacity:1;fill-rule:evenodd;stroke:none" />
    <path
       id="path3904"
       d="m 671.57611,1173.2811 c -75.767,0 -137.195,61.424 -137.195,137.193 0,56.177 33.781,104.437 82.12,125.655 -0.386,-9.58 -0.069,-21.08 2.388,-31.503 2.638,-11.138 17.653,-74.756 17.653,-74.756 0,0 -4.384,-8.759 -4.384,-21.707 0,-20.33 11.784,-35.514 26.459,-35.514 12.479,0 18.508,9.373 18.508,20.596 0,12.545 -8.001,31.309 -12.116,48.688 -3.437,14.554 7.297,26.424 21.653,26.424 25.994,0 43.5,-33.385 43.5,-72.941 0,-30.067 -20.252,-52.573 -57.085,-52.573 -41.616,0 -67.542,31.034 -67.542,65.7 0,11.952 3.523,20.383 9.044,26.908 2.538,2.998 2.891,4.205 1.972,7.647 -0.658,2.523 -2.17,8.601 -2.795,11.01 -0.913,3.474 -3.729,4.716 -6.869,3.433 -19.168,-7.825 -28.096,-28.815 -28.096,-52.412 0,-38.972 32.868,-85.702 98.051,-85.702 52.379,0 86.853,37.903 86.853,78.59 0,53.817 -29.92,94.024 -74.024,94.024 -14.812,0 -28.744,-8.007 -33.517,-17.1 0,0 -7.965,31.608 -9.651,37.713 -2.908,10.578 -8.603,21.149 -13.809,29.389 12.34,3.644 25.373,5.626 38.883,5.626 75.76,0 137.18597,-61.424 137.18597,-137.194 0,-75.77 -61.42697,-137.194 -137.18697,-137.194 z"
       clip-rule="evenodd"
       inkscape:connector-curvature="0"
       style="fill:#fff6e6;fill-opacity:1;fill-rule:evenodd;stroke:none" />
    <path
       id="path3914"
       d="m -20.352315,1384.938 c 0.068,13.796 2.986,27.14 12.0080004,37.134 1.158,1.282 2.217,1.953 3.338,3.129 8.514,8.925 21.0249996,15.827 36.6069996,19.534 15.996002,3.806 35.260002,3.661 51.412003,0.989 11.873,-1.963 32.834002,-8.502 41.344002,-13.855 l -0.027,-44.801 c -4.32,0.998 -23.146,16.213 -48.529002,13.446 -20.189001,-2.2 -27.205001,-15.598 -28.049001,-34.341 -0.764,-6.455 -0.779,-86.294 -0.68,-87.58 l 67.705003,-0.01 0.004,-44.802 -67.994003,-0.172 -0.324,-72.344 -32.811002,10e-4 c -4.8829996,-0.038 -7.2129996,-1.438 -8.0409996,2.595 -2.785,13.562 -3.588,22.499 -9.719,34.151 -9.6330004,18.303 -27.6480004,35.159 -48.0840004,39.784 v 40.77 l 31.721,0.279 0.119,106.091 z"
       clip-rule="evenodd"
       inkscape:connector-curvature="0"
       style="fill:#fff6e6;fill-opacity:1;fill-rule:evenodd;stroke:none" />
    <path
       id="path3924"
       d="m -141.63559,1257.7191 c -9.75399,4.326 -20.23699,7.249 -31.23899,8.564 11.229,-6.731 19.854,-17.39 23.915,-30.092 -10.511,6.233 -22.15,10.76 -34.541,13.199 -9.921,-10.571 -24.058,-17.176 -39.701,-17.176 -30.039,0 -54.393,24.353 -54.393,54.391 0,4.263 0.48,8.414 1.408,12.396 -45.205,-2.269 -85.283,-23.923 -112.11,-56.831 -4.683,8.033 -7.364,17.376 -7.364,27.345 0,18.871 9.602,35.52 24.197,45.273 -8.917,-0.283 -17.304,-2.729 -24.637,-6.803 -0.005,0.227 -0.005,0.454 -0.005,0.684 0,26.354 18.749,48.335 43.632,53.335 -4.564,1.242 -9.369,1.908 -14.33,1.908 -3.505,0 -6.912,-0.342 -10.234,-0.977 6.922,21.608 27.01,37.334 50.811,37.771 -18.614,14.59 -42.068,23.287 -67.552,23.287 -4.39001,0 -8.72001,-0.259 -12.97501,-0.762 24.07101,15.433 52.66201,24.438 83.37801,24.438 100.047,0 154.757,-82.881 154.757,-154.758 0,-2.358 -0.053,-4.704 -0.157,-7.037 10.628,-7.669 19.848,-17.248 27.13999,-28.155 z"
       inkscape:connector-curvature="0"
       style="fill:#fff6e6;fill-opacity:1;stroke:none" />
    <path
       id="path4461"
       d="m 3315.4462,1207.1001 h 53.129 c 19.612,2.331 48.146,19.13 58.675,41.475 2.895,6.27 4.421,7.234 6.832,25.801 1.286,9.565 1.93,16.639 6.189,20.577 6.028,5.466 28.373,1.769 32.794,5.225 l 3.376,2.652 2.01,4.18 0.723,3.376 -0.482,61.407 c -0.24,41.716 -34.16,75.876 -75.956,75.876 h -87.289 c -41.796,0 -75.956,-34.16 -75.956,-75.876 v -88.655 c 0,-41.797 34.159,-76.038 75.955,-76.038 l 0,0 z m 0.965,149.099 c -8.038,0 -14.549,6.511 -14.549,14.468 0,7.877 6.511,14.468 14.549,14.468 h 85.601 c 7.957,0 14.468,-6.591 14.468,-14.468 0,-7.957 -6.511,-14.468 -14.468,-14.468 h -85.601 l 0,0 z m 0,-86.967 c -8.038,0 -14.549,6.511 -14.549,14.468 0,7.957 6.511,14.548 14.549,14.548 h 42.117 c 8.037,0 14.548,-6.591 14.548,-14.548 0,-7.957 -6.511,-14.468 -14.548,-14.468 h -42.117 z"
       clip-rule="evenodd"
       inkscape:connector-curvature="0"
       style="fill:#fff6e6;fill-opacity:1;fill-rule:evenodd" />
    <path
       id="path4471"
       d="m 2733.2679,1373.8811 c 0,40.752 -33.036,73.788 -73.789,73.788 -40.752,0 -73.787,-33.035 -73.787,-73.788 0,-40.753 33.035,-73.788 73.787,-73.788 40.753,-10e-4 73.789,33.035 73.789,73.788 l 0,0 z m -166.019,0 c 0,40.752 -33.035,73.788 -73.788,73.788 -40.753,0 -73.788,-33.035 -73.788,-73.788 0,-40.753 33.035,-73.788 73.788,-73.788 40.753,0 73.788,33.035 73.788,73.788 l 0,0 z m -13.882,0 c 0,-33.085 -26.82,-59.905 -59.905,-59.905 -33.085,0 -59.905,26.819 -59.905,59.905 0,33.085 26.82,59.904 59.905,59.904 33.085,0 59.905,-26.819 59.905,-59.904 z"
       clip-rule="evenodd"
       inkscape:connector-curvature="0"
       style="fill:#fff6e6;fill-opacity:1;fill-rule:evenodd" />
    <g
       id="g4481"
       transform="translate(1986.8784,1119.9519)"
       style="fill:#fff6e6;fill-opacity:1">
      <path
         id="path4483"
         d="m 190.583,292.284 -47.592,-38.988 c -8.967,2.763 -18.389,3.162 -27.379,1.351 l 68.867,68.859 c 5.611,5.615 14.711,5.615 20.32,0 l 70.104,-70.101 c 5.617,-5.612 5.617,-14.711 0,-20.323 l -3.604,-3.604 -74.645,62.899 c -3.192,2.585 -6.071,-0.093 -6.071,-0.093 z"
         inkscape:connector-curvature="0"
         style="fill:#fff6e6;fill-opacity:1" />
      <path
         id="path4485"
         d="m 179.2,218.306 11.156,14.777 c 0,0 3.283,4.818 6.994,-0.331 l 32.309,-44.918 -24.859,-24.86 c -5.609,-5.609 -14.709,-5.609 -20.32,0 l -9.623,9.622 c 8.193,14.266 9.414,30.95 4.343,45.71 z"
         inkscape:connector-curvature="0"
         style="fill:#fff6e6;fill-opacity:1" />
      <path
         id="path4487"
         d="m 310.435,87.853 -76.18,104.577 -37.045,50.854 c -3.244,3.619 -6.105,1.715 -7.232,0.37 -0.387,-0.456 -8.096,-10.55 -18.066,-23.625 5.945,-13.605 5.539,-29.468 -1.578,-42.908 -1.676,-3.161 -3.719,-6.19 -6.141,-9.022 -17.74,-20.729 -48.922,-23.166 -69.648,-5.424 -20.734,17.735 -23.16,48.916 -5.424,69.648 5.963,6.972 13.447,11.866 21.543,14.627 10.816,3.688 22.727,3.562 33.564,-0.561 l 46.547,37.437 c 0,0 2.545,2.364 5.357,0.081 l 70.287,-59.311 76.932,-64.919 V 87.854 l -32.916,-0.001 z"
         inkscape:connector-curvature="0"
         style="fill:#fff6e6;fill-opacity:1" />
    </g>
    <path
       id="path4500"
       d="m 1798.6778,1428.5531 -11.543,-31.378 c 0,0 -18.759,20.921 -46.888,20.921 -24.891,-10e-4 -42.562,-21.642 -42.562,-56.27 0,-44.364 22.359,-60.234 44.364,-60.234 31.738,0 41.838,20.559 50.495,46.89 l 11.544,36.069 c 11.539,34.985 33.181,63.118 95.579,63.118 44.729,0 75.025,-13.705 75.025,-49.771 0,-29.217 -16.595,-44.366 -47.613,-51.581 l -23.083,-5.049 c -15.868,-3.607 -20.558,-10.099 -20.558,-20.92 0,-12.264 9.736,-19.477 25.609,-19.477 17.312,0 26.689,6.493 28.134,22.003 l 36.067,-4.33 c -2.886,-32.461 -25.247,-45.806 -62.039,-45.806 -32.459,0 -64.201,12.264 -64.201,51.578 0,24.526 11.903,40.038 41.837,47.25 l 24.531,5.771 c 18.395,4.33 24.522,11.903 24.522,22.363 0,13.342 -12.983,18.754 -37.51,18.754 -36.43,0 -51.577,-19.117 -60.236,-45.447 l -11.902,-36.066 c -15.146,-46.891 -39.313,-64.203 -87.287,-64.203 -53.02,0 -81.154,33.543 -81.154,90.531 0,54.826 28.135,84.4 78.633,84.4 40.756,-10e-4 60.236,-19.116 60.236,-19.116 l 0,0 z"
       clip-rule="evenodd"
       inkscape:connector-curvature="0"
       style="fill:#fff6e6;fill-opacity:1;fill-rule:evenodd" />
    <g
       id="g4510"
       transform="translate(3829.3338,1058.531)"
       style="fill:#fff6e6;fill-opacity:1">
      <path
         id="path4512"
         d="M 128.05,343.716 C 97.021,325.847 75.395,299.526 61.293,266.612 l 66.757,-60.176 v 137.28 z"
         inkscape:connector-curvature="0"
         style="fill:#fff6e6;fill-opacity:1" />
      <path
         id="path4514"
         d="m 194.806,366.281 c -16.014,0 -32.904,-4.699 -50.773,-13.163 v -76.167 h 209.686 c -25.385,51.717 -73.144,89.33 -128.821,89.33 h -30.092 z"
         inkscape:connector-curvature="0"
         style="fill:#fff6e6;fill-opacity:1" />
      <path
         id="path4516"
         d="m 292.599,71.033 c 47.958,29.154 77.104,79.927 77.104,136.341 0,17.869 -2.82,35.727 -8.467,52.657 H 292.599 V 71.033 z"
         inkscape:connector-curvature="0"
         style="fill:#fff6e6;fill-opacity:1" />
      <path
         id="path4518"
         d="m 209.86,47.532 c 23.501,0 45.129,4.697 65.816,14.109 V 168.817 C 270.032,165.997 157.194,60.693 154.381,57.872 c 18.805,-6.58 37.611,-10.34 55.479,-10.34 z"
         inkscape:connector-curvature="0"
         style="fill:#fff6e6;fill-opacity:1" />
      <path
         id="path4520"
         d="M 197.635,119.932 55.651,248.743 c -3.769,-13.161 -5.644,-27.271 -5.644,-41.369 0,-60.173 31.967,-114.704 87.442,-141.973 l 60.186,54.531 z"
         inkscape:connector-curvature="0"
         style="fill:#fff6e6;fill-opacity:1" />
    </g>
    <g
       id="g4535"
       transform="translate(3471.9227,1105.3871)"
       style="fill:#fff6e6;fill-opacity:1">
      <polygon
         id="polygon4537"
         points="96.695,227.285 96.695,342.282 281.381,342.282 281.381,227.285 261.614,227.285 261.614,323.467 116.941,323.508 116.941,227.285 "
         clip-rule="evenodd"
         style="fill:#fff6e6;fill-opacity:1;fill-rule:evenodd" />
      <path
         id="path4539"
         d="m 209.217,96.8 30.401,45.771 c 10.133,14.494 22.075,31.306 30.922,45.727 L 290.368,175.959 229.634,83.713 209.217,96.8 z"
         clip-rule="evenodd"
         inkscape:connector-curvature="0"
         style="fill:#fff6e6;fill-opacity:1;fill-rule:evenodd" />
      <polygon
         id="polygon4541"
         points="131.76,304.697 243.154,304.699 243.323,280.683 132.338,280.701 "
         clip-rule="evenodd"
         style="fill:#fff6e6;fill-opacity:1;fill-rule:evenodd" />
      <polygon
         id="polygon4543"
         points="276.913,63.934 295.008,173.244 317.975,170.174 299.168,60.238 "
         clip-rule="evenodd"
         style="fill:#fff6e6;fill-opacity:1;fill-rule:evenodd" />
      <polygon
         id="polygon4545"
         points="139.326,213.218 246.426,242.047 253.254,219.325 145.53,190.307 "
         clip-rule="evenodd"
         style="fill:#fff6e6;fill-opacity:1;fill-rule:evenodd" />
      <polygon
         id="polygon4547"
         points="159.333,155.808 254.942,212.406 267.302,192.452 171.096,135.221 "
         clip-rule="evenodd"
         style="fill:#fff6e6;fill-opacity:1;fill-rule:evenodd" />
      <polygon
         id="polygon4549"
         points="132.748,263.547 243.001,273.921 246.112,250.666 134.988,240.017 "
         clip-rule="evenodd"
         style="fill:#fff6e6;fill-opacity:1;fill-rule:evenodd" />
    </g>
    <path
       id="path4566"
       d="m 3010.8886,1447.1915 c -46.408,0 -92.812,0.295 -139.217,-0.125 -23.334,-0.208 -33.082,-7.57 -39.811,-31.131 -10.636,-37.233 -10.367,-75.513 -7.312,-113.671 1.294,-16.17 3.948,-32.548 8.583,-48.058 6.328,-21.197 16.607,-28.108 38.571,-28.221 75.316,-0.384 150.631,-0.611 225.944,-0.336 26.859,0.1 38.386,8.596 44.057,34.539 11.088,50.738 11.146,101.953 0.052,152.697 -5.659,25.889 -17.019,33.966 -44.108,34.494 -28.916,0.566 -57.848,0.128 -86.772,0.128 0,-0.104 0.01,-0.209 0.013,-0.316 z m -57.536,-49.635 c 32.441,-20.919 62.257,-40.144 94.993,-61.251 -32.936,-21.287 -62.751,-40.561 -94.993,-61.399 0,41.892 0,80.261 0,122.65 z"
       clip-rule="evenodd"
       inkscape:connector-curvature="0"
       style="fill:#fff6e6;fill-opacity:1;fill-rule:evenodd" />
  </g>
</svg>
